<?xml version="1.0" standalone="no"?>
<!DOCTYPE svg PUBLIC "-//W3C//DTD SVG 1.1//EN" "http://www.w3.org/Graphics/SVG/1.1/DTD/svg11.dtd" >
<svg xmlns="http://www.w3.org/2000/svg" xmlns:xlink="http://www.w3.org/1999/xlink" version="1.1">
<metadata>
Created by FontForge 20201107 at Fri Sep 25 17:24:38 2015
 By Unknown
Copyright (c) 2015 Monotype ITC Inc. All rights reserved.
</metadata>
<defs>
<font id="SouvenirStd-Medium" horiz-adv-x="640" >
  <font-face 
    font-family="ITC Souvenir Std Medium"
    font-weight="500"
    font-stretch="normal"
    units-per-em="1000"
    panose-1="2 8 7 3 5 5 10 2 2 4"
    ascent="750"
    descent="-250"
    x-height="478"
    cap-height="732"
    bbox="-167 -225 1018 966"
    underline-thickness="50"
    underline-position="-100"
    stemh="38"
    stemv="74"
    unicode-range="U+000D-FB02"
  />
<missing-glyph horiz-adv-x="500" 
d="M0 700h500v-700h-500v700zM80 650l170 -255l170 255h-340zM50 605v-510l170 255zM450 95v510l-170 -255zM420 50l-170 255l-170 -255h340z" />
    <glyph glyph-name="fi" unicode="fi" horiz-adv-x="590" 
d="M93 478v44c0 132 53 248 235 248c127 0 206 -59 206 -152c0 -40 -32 -64 -76 -64s-78 30 -78 64c0 14 6 26 6 38c0 22 -30 40 -72 40c-65 0 -94 -33 -94 -102v-116h273c24 0 34 -15 34 -45v-337c0 -62 47 -32 47 -70c0 -17 -12 -26 -35 -26h-154c-23 0 -35 9 -35 26
c0 36 47 10 47 70v256c0 46 -14 62 -50 62h-125v-317c0 -62 47 -32 47 -70c0 -19 -15 -27 -35 -27h-154c-20 0 -35 8 -35 27c0 36 47 10 47 70v317c-34 2 -72 -8 -72 32c0 41 39 30 73 32z" />
    <glyph glyph-name="fl" unicode="fl" horiz-adv-x="610" 
d="M93 478c-5 205 43 292 201 292c66 0 114 -18 132 -28c27 10 50 20 83 20c25 0 36 -12 36 -60v-605c0 -62 47 -32 47 -70c0 -19 -15 -27 -35 -27h-154c-20 0 -35 8 -35 27c0 36 47 10 47 70v513c0 38 -35 86 -107 86c-61 0 -88 -36 -88 -111v-107h69c24 0 36 -11 36 -32
c0 -22 -12 -32 -36 -32h-67v-317c0 -62 47 -32 47 -70c0 -19 -15 -27 -35 -27h-154c-20 0 -35 8 -35 27c0 36 47 10 47 70v317c-34 2 -72 -8 -72 32c0 41 39 30 73 32z" />
    <glyph glyph-name=".notdef" horiz-adv-x="500" 
d="M0 700h500v-700h-500v700zM80 650l170 -255l170 255h-340zM50 605v-510l170 255zM450 95v510l-170 -255zM420 50l-170 255l-170 -255h340z" />
    <glyph glyph-name="NULL" horiz-adv-x="0" 
 />
    <glyph glyph-name="CR" unicode="&#xd;" horiz-adv-x="320" 
 />
    <glyph glyph-name="space" unicode=" " horiz-adv-x="320" 
 />
    <glyph glyph-name="exclam" unicode="!" horiz-adv-x="330" 
d="M80 694c0 48 52 64 85 64s85 -15 85 -64c0 -10 -4 -36 -5 -43l-45 -402c-5 -44 -11 -57 -35 -57c-22 0 -30 10 -35 54l-43 389c-4 38 -7 49 -7 59zM85 60c0 41 38 70 80 70s80 -29 80 -70c0 -43 -40 -70 -80 -70s-80 27 -80 70z" />
    <glyph glyph-name="quotedbl" unicode="&#x22;" horiz-adv-x="333" 
d="M44 691c0 42 17 57 41 57c25 0 41 -15 41 -57l-1 -25l-18 -201c-1 -13 -5 -33 -22 -33c-15 0 -21 16 -22 30l-18 204zM207 691c0 42 17 57 41 57c25 0 41 -15 41 -57l-1 -25l-18 -201c-1 -13 -5 -33 -22 -33c-15 0 -21 16 -22 30l-18 204z" />
    <glyph glyph-name="numbersign" unicode="#" 
d="M246 732h86l-34 -236h87l34 236h86l-34 -236h115v-72h-125l-14 -96h113v-72h-123l-37 -256h-85l36 256h-87l-37 -256h-85l36 256h-124v72h134l14 96h-124v72h134zM288 424l-14 -96h87l14 96h-87z" />
    <glyph glyph-name="dollar" unicode="$" 
d="M295 813c0 28 11 33 28 33c18 0 28 -5 28 -33v-73c79 -5 183 -50 183 -134c0 -28 -20 -50 -49 -50c-96 0 19 106 -134 129v-246c113 -45 223 -88 223 -225c0 -146 -144 -214 -223 -212v-78c0 -28 -11 -33 -28 -33c-18 0 -28 5 -28 33v76c-114 0 -228 84 -228 168
c0 29 25 38 47 38c83 0 12 -144 181 -148v276c-104 35 -210 88 -210 213c0 113 104 189 210 193v73zM295 682c-56 -3 -106 -42 -106 -103c0 -66 52 -95 106 -117v220zM351 309v-251c64 4 117 50 117 120c0 73 -56 104 -117 131z" />
    <glyph glyph-name="percent" unicode="%" horiz-adv-x="880" 
d="M65 573c0 110 76 175 177 175c102 0 177 -65 177 -175s-76 -175 -177 -175c-102 0 -177 65 -177 175zM594 699c23 43 21 49 59 49c21 0 27 -3 27 -9c0 -2 0 -3 -13 -27l-382 -682c-22 -41 -21 -46 -58 -46c-21 0 -27 3 -27 9c0 2 0 3 13 27zM242 706
c-48 0 -59 -55 -59 -133c0 -103 22 -133 59 -133s59 30 59 133c0 107 -24 133 -59 133zM460 167c0 110 76 175 177 175c102 0 177 -65 177 -175s-76 -175 -177 -175c-102 0 -177 65 -177 175zM637 300c-48 0 -59 -55 -59 -133c0 -103 22 -133 59 -133s59 30 59 133
c0 107 -24 133 -59 133z" />
    <glyph glyph-name="ampersand" unicode="&#x26;" horiz-adv-x="820" 
d="M121 562c0 126 112 186 226 186c94 0 196 -45 196 -151c0 -94 -102 -155 -187 -193l177 -214c26 30 73 91 73 137s-63 32 -63 67c0 19 14 28 39 28h159c25 0 39 -9 39 -28c0 -42 -44 -12 -78 -72c-22 -39 -59 -89 -124 -180c54 -55 110 -72 155 -72c24 0 44 9 63 9
c12 0 23 -11 23 -23c0 -43 -92 -68 -149 -68c-77 0 -132 29 -191 76c-66 -52 -135 -80 -220 -80c-116 0 -241 66 -241 195c0 96 69 168 171 219c-52 69 -68 123 -68 164zM336 688c-43 0 -91 -32 -91 -85s37 -104 68 -143c111 58 122 108 122 133c0 58 -31 95 -99 95z
M231 344c-50 -32 -89 -78 -89 -138c0 -88 60 -146 149 -146c55 0 91 19 136 50z" />
    <glyph glyph-name="quoteright" unicode="&#x2019;" horiz-adv-x="300" 
d="M72 688c0 38 38 60 74 60c52 0 78 -42 78 -91c0 -89 -89 -163 -111 -163c-8 0 -19 8 -19 16c0 18 59 39 66 121c-10 -1 -17 -3 -26 -3c-35 0 -62 24 -62 60z" />
    <glyph glyph-name="parenleft" unicode="(" horiz-adv-x="290" 
d="M40 282c0 242 148 466 206 466c18 0 35 -6 35 -22c0 -39 -111 -194 -111 -438c0 -276 108 -413 108 -457c0 -18 -18 -23 -37 -23c-68 0 -201 240 -201 474z" />
    <glyph glyph-name="parenright" unicode=")" horiz-adv-x="290" 
d="M9 726c0 16 16 22 35 22c58 0 206 -224 206 -466c0 -234 -133 -474 -201 -474c-18 0 -37 4 -37 23c0 44 108 181 108 457c0 244 -111 398 -111 438z" />
    <glyph glyph-name="asterisk" unicode="*" horiz-adv-x="380" 
d="M150 709c0 22 15 39 42 39c24 0 38 -18 38 -39c0 -24 -34 -80 -34 -104c0 -3 1 -9 5 -9c24 0 60 86 104 86c20 0 37 -16 37 -36c0 -66 -134 -33 -134 -64s134 2 134 -64c0 -20 -17 -36 -37 -36c-42 0 -79 84 -105 84h-2c-3 -1 -4 -5 -4 -9c0 -24 34 -80 34 -104
c0 -21 -14 -39 -38 -39s-38 18 -38 39c0 24 34 80 34 104c0 5 -2 8 -4 9h-2c-26 0 -63 -84 -105 -84c-20 0 -37 16 -37 36c0 66 134 33 134 64s-134 -2 -134 64c0 20 17 36 37 36c42 0 81 -86 104 -86c4 0 5 6 5 9c0 24 -34 80 -34 104z" />
    <glyph glyph-name="plus" unicode="+" horiz-adv-x="600" 
d="M255 478h90v-194h194v-90h-194v-194h-90v194h-194v90h194v194z" />
    <glyph glyph-name="comma" unicode="," horiz-adv-x="320" 
d="M76 63c0 42 41 67 81 67c58 0 87 -48 87 -101c0 -99 -99 -182 -123 -182c-9 0 -21 9 -21 18c0 20 65 43 73 135c-11 -2 -19 -4 -29 -4c-37 0 -68 26 -68 67z" />
    <glyph glyph-name="hyphen" unicode="-" horiz-adv-x="320" 
d="M47 287h226c24 0 27 -26 27 -48s-3 -48 -27 -48h-226c-24 0 -27 26 -27 48s3 48 27 48z" />
    <glyph glyph-name="period" unicode="." horiz-adv-x="320" 
d="M80 60c0 41 38 70 80 70s80 -29 80 -70c0 -43 -40 -70 -80 -70s-80 27 -80 70z" />
    <glyph glyph-name="slash" unicode="/" horiz-adv-x="490" 
d="M459 748c30 0 47 3 47 -13c0 -8 -10 -24 -33 -64l-344 -595c-61 -106 -45 -92 -97 -92c-31 0 -48 -3 -48 13c0 6 7 17 20 40l388 671c27 47 20 40 67 40z" />
    <glyph glyph-name="zero" unicode="0" 
d="M37 366c0 203 104 382 283 382s283 -180 283 -382c0 -203 -104 -382 -283 -382s-283 180 -283 382zM319 688c-115 0 -128 -222 -128 -322c0 -211 47 -322 129 -322s129 111 129 322c0 182 -36 322 -130 322z" />
    <glyph glyph-name="one" unicode="1" 
d="M87 650c0 14 20 30 52 32c89 6 177 76 211 76c26 0 41 -13 41 -53v-560c0 -70 27 -78 65 -81c31 -2 61 -6 61 -34c0 -21 -19 -30 -45 -30h-316c-45 0 -48 18 -48 30c0 24 31 31 65 33c49 3 70 12 70 80v410c0 71 -27 70 -79 69c-38 -1 -77 -6 -77 28z" />
    <glyph glyph-name="two" unicode="2" 
d="M69 549c0 104 111 199 267 199c164 0 244 -89 244 -191c0 -179 -243 -279 -358 -453h206c80 0 99 67 138 67c11 0 22 -12 22 -24c0 -20 -20 -46 -30 -103c-5 -31 -22 -44 -47 -44h-419c-34 0 -40 13 -40 32c0 144 374 362 374 540c0 70 -48 116 -113 116
c-55 0 -126 -45 -126 -107c0 -34 26 -43 26 -72c0 -33 -36 -46 -64 -46c-50 0 -80 36 -80 86z" />
    <glyph glyph-name="three" unicode="3" 
d="M81 589c0 87 105 159 242 159c116 0 235 -61 235 -185c0 -90 -70 -142 -156 -162v-2c92 -16 184 -86 184 -188c0 -155 -139 -227 -285 -227c-93 0 -254 41 -254 156c0 41 24 64 67 64c50 0 55 -21 59 -51c6 -46 18 -109 115 -109c95 0 144 65 144 162
c0 148 -124 152 -196 154c-29 1 -49 4 -49 30s24 27 60 30c64 5 157 11 157 147c0 72 -41 121 -110 121c-42 0 -87 -22 -87 -68c0 -16 6 -33 6 -49c0 -36 -42 -42 -59 -42c-42 0 -73 19 -73 60z" />
    <glyph glyph-name="four" unicode="4" 
d="M31 226c0 99 180 411 318 510c21 15 34 22 69 22c47 0 67 -22 67 -72v-426h79c29 0 44 -10 44 -34c0 -21 -8 -34 -39 -34h-84v-97c0 -62 65 -23 65 -69c0 -13 -4 -26 -43 -26h-192c-39 0 -43 13 -43 26c0 46 65 7 65 69v97h-256c-44 0 -50 17 -50 34zM337 636h-2
c-94 -115 -174 -240 -220 -376h222v376z" />
    <glyph glyph-name="five" unicode="5" 
d="M329 732c74 0 147 18 185 18c16 0 25 -8 25 -24c0 -31 -24 -94 -270 -94l-76 1l-14 -208c46 23 93 34 152 34c132 0 257 -70 257 -220c0 -170 -127 -255 -309 -255c-144 0 -228 78 -228 148c0 37 24 62 62 62c29 0 64 -12 64 -48c0 -10 -2 -20 -2 -29
c0 -53 51 -73 100 -73c107 0 159 77 159 182c0 89 -44 173 -145 173c-95 0 -123 -67 -160 -67c-24 0 -29 15 -29 36l26 380c90 -7 125 -16 203 -16z" />
    <glyph glyph-name="six" unicode="6" 
d="M41 296c0 260 192 452 443 452c43 0 60 -9 60 -28c0 -23 -24 -29 -57 -32c-86 -9 -254 -62 -281 -293c52 36 105 60 161 60c146 0 232 -97 232 -219c0 -154 -123 -252 -271 -252c-192 0 -287 129 -287 312zM333 391c-85 0 -132 -64 -132 -163c0 -75 25 -184 122 -184
c98 0 122 110 122 184c0 61 -21 163 -112 163z" />
    <glyph glyph-name="seven" unicode="7" 
d="M108 732h427c31 0 36 -8 36 -18c0 -29 -66 -160 -93 -248l-120 -380c-25 -79 -34 -102 -75 -102h-79c-18 0 -42 10 -42 29c0 -1 -12 4 123 275l169 340h-257c-100 0 -43 -79 -103 -79c-17 0 -25 11 -25 39c0 129 9 144 39 144z" />
    <glyph glyph-name="eight" unicode="8" 
d="M67 543c0 97 85 205 271 205c163 0 243 -89 243 -160c0 -90 -81 -141 -146 -171c93 -43 167 -105 167 -211c0 -137 -129 -222 -297 -222c-119 0 -268 55 -268 194c0 94 88 158 167 187c-72 37 -137 91 -137 178zM331 688c-60 0 -124 -41 -124 -108
c0 -77 100 -110 163 -135h1c45 35 90 68 90 130c0 70 -60 113 -130 113zM265 331c-56 -31 -108 -80 -108 -147c0 -89 73 -140 151 -140c67 0 154 39 154 120c0 40 -23 76 -69 103z" />
    <glyph glyph-name="nine" unicode="9" 
d="M41 496c0 154 123 252 271 252c192 0 287 -128 287 -312c0 -255 -191 -452 -434 -452c-50 0 -69 4 -69 28c0 20 22 29 57 32c77 7 254 59 281 293c-52 -36 -105 -60 -161 -60c-146 0 -232 97 -232 219zM316 688c-91 0 -121 -100 -121 -184c0 -66 24 -163 111 -163
s133 65 133 163c0 71 -22 184 -123 184z" />
    <glyph glyph-name="colon" unicode=":" horiz-adv-x="320" 
d="M80 359c0 41 38 70 80 70s80 -29 80 -70c0 -43 -40 -70 -80 -70s-80 27 -80 70zM80 60c0 41 38 70 80 70s80 -29 80 -70c0 -43 -40 -70 -80 -70s-80 27 -80 70z" />
    <glyph glyph-name="semicolon" unicode=";" horiz-adv-x="320" 
d="M80 359c0 41 38 70 80 70s80 -29 80 -70c0 -43 -40 -70 -80 -70s-80 27 -80 70zM76 63c0 42 38 67 81 67c59 0 87 -49 87 -101c0 -99 -99 -182 -123 -182c-9 0 -21 9 -21 18c0 20 65 43 73 135c-11 -2 -19 -4 -29 -4c-37 0 -68 26 -68 67z" />
    <glyph glyph-name="less" unicode="&#x3c;" horiz-adv-x="600" 
d="M539 486v-87l-359 -160l359 -161v-86l-478 209v77z" />
    <glyph glyph-name="equal" unicode="=" horiz-adv-x="600" 
d="M61 364h478v-90h-478v90zM61 204h478v-90h-478v90z" />
    <glyph glyph-name="greater" unicode="&#x3e;" horiz-adv-x="600" 
d="M61 399v87l478 -208v-77l-478 -209v86l359 161z" />
    <glyph glyph-name="question" unicode="?" horiz-adv-x="500" 
d="M27 616c0 92 108 142 218 142c145 0 228 -89 228 -188c0 -226 -231 -219 -231 -278c0 -92 -12 -98 -38 -98c-25 0 -40 10 -40 50v114c0 53 167 42 167 220c0 68 -34 126 -105 126c-39 0 -81 -20 -81 -68c0 -11 4 -18 4 -31c0 -15 -19 -43 -63 -43c-32 0 -59 18 -59 54z
M129 60c0 41 38 70 80 70s80 -29 80 -70c0 -43 -40 -70 -80 -70s-80 27 -80 70z" />
    <glyph glyph-name="at" unicode="@" horiz-adv-x="800" 
d="M18 351c0 234 184 397 401 397c204 0 363 -141 363 -327c0 -127 -70 -261 -205 -261c-67 0 -90 31 -95 62h-2c-34 -44 -72 -62 -125 -62c-62 0 -111 50 -111 136c0 111 69 266 216 266c46 0 62 -18 72 -36l6 20h90l-63 -269c-4 -15 -4 -26 -4 -30c0 -19 13 -29 39 -29
c66 0 114 115 114 202c0 125 -108 264 -295 264c-142 0 -291 -111 -291 -334c0 -169 131 -302 303 -302c79 0 137 15 217 53l13 -56h-1c-75 -42 -150 -61 -229 -61c-284 0 -413 212 -413 367zM471 500c-52 0 -135 -85 -135 -186c0 -57 17 -88 55 -88c69 0 120 141 120 212
c0 49 -16 62 -40 62z" />
    <glyph glyph-name="A" unicode="A" horiz-adv-x="730" 
d="M-3 28c0 44 45 19 61 72c78 258 182 495 250 612c15 26 26 36 63 36c14 0 40 2 51 -18c118 -211 204 -483 261 -638c11 -31 51 -19 51 -62c0 -20 -11 -30 -32 -30h-192c-19 0 -27 9 -27 28c0 43 46 30 46 56c0 20 -19 66 -49 162h-294c-15 -38 -44 -138 -44 -160
c0 -29 51 -16 51 -58c0 -20 -10 -28 -31 -28h-139c-11 0 -26 6 -26 28zM330 618l-120 -300h243z" />
    <glyph glyph-name="B" unicode="B" horiz-adv-x="710" 
d="M67 732h359c145 0 222 -61 222 -156c0 -94 -62 -157 -176 -186v-2c120 -3 221 -69 221 -176c0 -135 -105 -212 -268 -212h-358c-28 0 -43 9 -43 30c0 43 56 19 56 68v536c0 49 -56 25 -56 68c0 21 14 30 43 30zM228 594v-204c91 20 260 55 260 186c0 79 -93 88 -157 88
c-77 0 -103 -3 -103 -70zM390 360l-162 -32v-190c0 -56 15 -70 94 -70c136 0 211 47 211 138c0 80 -66 145 -143 154z" />
    <glyph glyph-name="C" unicode="C" horiz-adv-x="740" 
d="M32 348c0 228 190 400 410 400c118 0 239 -58 254 -96c5 -13 10 -66 10 -107c0 -27 -16 -35 -30 -35c-20 0 -27 22 -37 48c-20 53 -87 122 -200 122c-170 0 -247 -139 -247 -312c0 -165 79 -306 252 -306c151 0 201 121 240 121c17 0 31 -13 31 -25
c0 -59 -126 -174 -303 -174c-205 0 -380 147 -380 364z" />
    <glyph glyph-name="D" unicode="D" horiz-adv-x="780" 
d="M67 732h217c263 0 469 -98 469 -365c0 -250 -179 -367 -399 -367h-287c-28 0 -43 9 -43 30c0 43 56 19 56 68v536c0 49 -56 25 -56 68c0 21 14 30 43 30zM228 579v-426c0 -79 15 -85 81 -85c186 0 284 128 284 298c0 172 -93 298 -286 298c-66 0 -79 -10 -79 -85z" />
    <glyph glyph-name="E" unicode="E" horiz-adv-x="630" 
d="M67 732h465c45 0 56 -20 56 -103c0 -19 -2 -31 -17 -31c-23 0 -23 19 -69 45c-27 15 -56 21 -154 21c-103 0 -120 -3 -120 -64v-170h177c54 0 58 34 84 34c25 0 27 -28 27 -68c0 -52 -2 -70 -26 -70c-30 0 -22 36 -86 36h-176v-189c0 -104 15 -105 67 -105
c186 0 232 21 251 46c15 19 25 37 47 37c19 0 29 -12 29 -34c0 -76 -14 -117 -70 -117h-485c-28 0 -43 9 -43 30c0 43 56 19 56 68v536c0 49 -56 25 -56 68c0 21 14 30 43 30z" />
    <glyph glyph-name="F" unicode="F" horiz-adv-x="590" 
d="M67 732h482c23 0 39 -76 39 -106c0 -31 -10 -44 -30 -44c-17 0 -25 19 -39 37c-29 37 -63 45 -164 45c-109 0 -127 -1 -127 -78v-176h177c54 0 58 34 84 34s28 -31 28 -61c0 -59 -3 -77 -27 -77s-21 36 -86 36h-176v-244c0 -49 56 -25 56 -68c0 -21 -14 -30 -43 -30h-174
c-28 0 -43 9 -43 30c0 43 56 19 56 68v536c0 49 -56 25 -56 68c0 21 14 30 43 30z" />
    <glyph glyph-name="G" unicode="G" horiz-adv-x="770" 
d="M32 358c0 238 199 390 409 390c103 0 270 -41 270 -110v-87c0 -20 -10 -31 -30 -31c-14 0 -23 13 -32 30c-24 46 -56 130 -201 130c-171 0 -256 -174 -256 -322c0 -150 83 -306 248 -306c102 0 157 49 157 144v66c0 43 -37 46 -74 47c-40 1 -81 0 -81 37c0 11 3 32 50 32
h197c41 0 57 -10 57 -31c0 -8 -11 -113 -11 -127c0 -51 13 -96 13 -115c0 -33 -142 -121 -319 -121c-212 0 -397 139 -397 374z" />
    <glyph glyph-name="H" unicode="H" horiz-adv-x="810" 
d="M70 732h174c28 0 43 -9 43 -30c0 -43 -56 -19 -56 -68v-202h348v202c0 49 -56 25 -56 68c0 21 14 30 43 30h174c28 0 43 -9 43 -30c0 -43 -56 -19 -56 -68v-536c0 -49 56 -25 56 -68c0 -21 -14 -30 -43 -30h-174c-28 0 -43 9 -43 30c0 43 56 19 56 68v266h-348v-266
c0 -49 56 -25 56 -68c0 -21 -14 -30 -43 -30h-174c-28 0 -43 9 -43 30c0 43 56 19 56 68v536c0 49 -56 25 -56 68c0 21 14 30 43 30z" />
    <glyph glyph-name="I" unicode="I" horiz-adv-x="310" 
d="M68 732h174c28 0 43 -9 43 -30c0 -43 -56 -19 -56 -68v-536c0 -49 56 -25 56 -68c0 -21 -14 -30 -43 -30h-174c-28 0 -43 9 -43 30c0 43 56 19 56 68v536c0 49 -56 25 -56 68c0 21 14 30 43 30z" />
    <glyph glyph-name="J" unicode="J" horiz-adv-x="520" 
d="M292 732h175c28 0 43 -9 43 -30c0 -43 -56 -19 -56 -68v-425c0 -156 -77 -223 -240 -223c-139 0 -213 74 -213 169c0 71 56 129 128 129c51 0 70 -24 70 -52c0 -58 -94 -20 -94 -98c0 -49 44 -80 97 -80c72 0 104 46 104 135v441c0 49 -68 26 -68 72c0 13 3 30 54 30z
" />
    <glyph glyph-name="K" unicode="K" horiz-adv-x="740" 
d="M67 732h174c28 0 43 -9 43 -30c0 -43 -56 -19 -56 -68v-286c65 53 274 252 274 298c0 36 -50 26 -50 56c0 22 18 30 38 30h173c23 0 34 -9 34 -30c0 -34 -51 -34 -79 -69c-33 -41 -91 -93 -183 -194c143 -155 190 -241 239 -332c35 -66 64 -45 64 -77
c0 -23 -20 -30 -38 -30h-191c-25 0 -39 9 -39 30c0 30 44 26 44 48c0 37 -142 235 -184 262l-102 -84v-158c0 -49 56 -25 56 -68c0 -21 -14 -30 -43 -30h-174c-28 0 -43 9 -43 30c0 43 56 19 56 68v536c0 49 -56 25 -56 68c0 21 14 30 43 30z" />
    <glyph glyph-name="L" unicode="L" horiz-adv-x="600" 
d="M67 732h174c28 0 43 -9 43 -30c0 -43 -56 -19 -56 -68v-521c0 -36 14 -45 116 -45c217 0 186 94 240 94c13 0 22 -8 22 -39c0 -54 -30 -123 -78 -123h-461c-28 0 -43 9 -43 30c0 43 56 19 56 68v536c0 49 -56 25 -56 68c0 21 14 30 43 30z" />
    <glyph glyph-name="M" unicode="M" horiz-adv-x="890" 
d="M63 732h198c18 0 30 -14 49 -64c24 -62 78 -171 148 -380l158 381c23 56 22 63 61 63h160c21 0 33 -12 33 -33c0 -48 -68 -10 -68 -73v-528c0 -49 56 -25 56 -68c0 -21 -14 -30 -43 -30h-168c-28 0 -43 9 -43 30c0 43 56 19 56 68v486h-2c-96 -251 -160 -382 -188 -444
c-26 -54 -34 -50 -44 -50c-3 0 -21 -4 -52 60c-30 62 -143 305 -180 434h-2l-10 -479c0 -54 74 -30 74 -77c0 -23 -25 -28 -45 -28h-159c-20 0 -32 11 -32 31c0 42 64 11 68 81s22 250 22 513c0 64 -78 22 -78 75c0 23 18 32 31 32z" />
    <glyph glyph-name="N" unicode="N" horiz-adv-x="750" 
d="M56 732h152c48 0 100 -70 388 -490h2v392c0 49 -60 25 -60 68c0 21 14 30 43 30h108c28 0 43 -9 43 -30c0 -43 -60 -19 -60 -68v-588c0 -46 -7 -56 -46 -56c-20 0 -31 1 -42 17l-405 571h-3v-480c0 -49 68 -25 68 -68c0 -21 -14 -30 -43 -30h-130c-44 0 -47 18 -47 30
c0 42 78 19 78 68v536c0 49 -78 26 -78 68c0 18 13 30 32 30z" />
    <glyph glyph-name="O" unicode="O" horiz-adv-x="830" 
d="M32 366c0 216 154 382 383 382s383 -166 383 -382s-154 -382 -383 -382s-383 166 -383 382zM414 680c-126 0 -222 -119 -222 -314c0 -178 83 -314 223 -314s223 136 223 314c0 171 -78 314 -224 314z" />
    <glyph glyph-name="P" unicode="P" horiz-adv-x="650" 
d="M67 732h287c163 0 293 -62 293 -192c0 -177 -194 -258 -419 -258v-184c0 -49 66 -25 66 -68c0 -21 -14 -30 -43 -30h-184c-28 0 -43 9 -43 30c0 43 56 19 56 68v536c0 49 -56 25 -56 68c0 21 14 30 43 30zM228 603v-257c142 0 259 73 259 184c0 72 -39 134 -166 134
c-53 0 -93 -4 -93 -61z" />
    <glyph glyph-name="Q" unicode="Q" horiz-adv-x="830" 
d="M32 366c0 216 154 382 383 382s383 -166 383 -382c0 -174 -100 -316 -259 -364c38 -30 84 -46 124 -46c26 0 56 7 81 7c29 0 45 -23 45 -46c0 -46 -61 -55 -98 -55c-93 0 -182 49 -239 125c-8 -2 -27 -3 -36 -3c-232 0 -384 168 -384 382zM414 680
c-126 0 -222 -119 -222 -314c0 -179 84 -314 222 -314c-15 32 -24 80 -24 102c0 32 10 54 33 54c57 0 13 -62 61 -143c98 38 154 155 154 301c0 171 -78 314 -224 314z" />
    <glyph glyph-name="R" unicode="R" horiz-adv-x="710" 
d="M67 732h343c160 0 245 -64 245 -182c0 -87 -84 -144 -155 -168v-2c95 -137 126 -224 148 -275c22 -52 70 -37 70 -79c0 -16 -10 -26 -26 -26h-227c-9 0 -23 6 -23 28c0 38 46 19 46 56c0 50 -83 183 -130 256l-130 -24v-218c0 -49 56 -25 56 -68c0 -21 -14 -30 -43 -30
h-174c-28 0 -43 9 -43 30c0 43 56 19 56 68v536c0 49 -56 25 -56 68c0 21 14 30 43 30zM228 602v-218c104 13 267 39 267 158c0 85 -54 122 -172 122c-38 0 -95 -6 -95 -62z" />
    <glyph glyph-name="S" unicode="S" 
d="M50 520c0 143 128 228 269 228c130 0 234 -48 243 -74c6 -18 6 -48 6 -83c0 -27 -11 -39 -28 -39c-65 0 -11 128 -219 128c-84 0 -127 -56 -127 -112c0 -193 430 -43 430 -333c0 -144 -125 -251 -307 -251c-164 0 -295 91 -295 179c0 23 16 46 41 46
c82 0 43 -157 249 -157c108 0 174 57 174 134c0 185 -436 60 -436 334z" />
    <glyph glyph-name="T" unicode="T" horiz-adv-x="660" 
d="M55 732h550c25 0 29 -12 34 -27c12 -37 18 -90 18 -95c0 -18 -6 -30 -25 -30c-47 0 -57 84 -180 84c-29 0 -48 -3 -48 -31v-535c0 -49 62 -25 62 -68c0 -21 -14 -30 -43 -30h-186c-28 0 -43 9 -43 30c0 43 62 19 62 68v535c0 28 -19 31 -48 31c-121 0 -134 -84 -180 -84
c-19 0 -25 12 -25 30c0 6 8 59 18 96c4 15 11 26 34 26z" />
    <glyph glyph-name="U" unicode="U" horiz-adv-x="760" 
d="M68 732h184c16 0 37 -10 37 -30c0 -44 -51 -26 -57 -54c-7 -30 -26 -242 -26 -353c0 -171 65 -243 204 -243c122 0 198 66 198 225c0 75 -9 302 -20 352c-11 49 -69 34 -69 73c0 23 15 30 26 30h155c20 0 31 -9 31 -28c0 -31 -55 -17 -55 -74c0 -26 20 -196 20 -319
c0 -215 -103 -327 -325 -327c-193 0 -315 109 -315 284c0 84 26 331 26 373c0 41 -53 28 -53 61c0 22 17 30 39 30z" />
    <glyph glyph-name="V" unicode="V" horiz-adv-x="720" 
d="M33 732h188c35 0 39 -16 39 -28c0 -41 -52 -20 -52 -82c0 -88 137 -425 190 -510c94 165 182 402 182 514c0 67 -68 23 -68 81c0 19 26 25 39 25h135c26 0 41 -9 41 -28c0 -45 -41 -20 -57 -89c-45 -190 -150 -471 -226 -581c-23 -33 -39 -50 -83 -50
c-48 0 -64 16 -79 38c-85 124 -190 395 -230 580c-18 83 -60 58 -60 102c0 19 14 28 41 28z" />
    <glyph glyph-name="W" unicode="W" horiz-adv-x="970" 
d="M29 732h191c20 0 30 -9 30 -28c0 -43 -49 -21 -49 -71c0 -86 44 -279 113 -511h2c57 149 118 365 118 455c0 121 -58 76 -58 129c0 12 3 26 37 26h174c23 0 35 -8 35 -29c0 -41 -52 -17 -52 -75c0 -126 121 -413 140 -506h2c63 152 133 394 133 498c0 66 -75 39 -75 82
c0 19 10 30 28 30h142c20 0 35 -7 35 -27c0 -39 -38 -31 -46 -66c-43 -179 -68 -368 -173 -601c-13 -29 -35 -54 -78 -54c-25 0 -56 5 -78 52c-26 55 -84 182 -121 368h-2c-38 -184 -76 -265 -103 -326c-41 -92 -58 -94 -100 -94c-33 0 -51 14 -64 40
c-67 129 -137 407 -170 614c-5 30 -45 28 -45 66c0 21 11 28 34 28z" />
    <glyph glyph-name="X" unicode="X" horiz-adv-x="730" 
d="M34 732h220c22 0 34 -11 34 -30c0 -30 -40 -25 -40 -42c0 -22 84 -121 139 -199c49 56 133 156 133 188c0 37 -52 20 -52 54c0 17 4 29 24 29h165c26 0 31 -11 31 -31c0 -28 -33 -28 -54 -51c-31 -34 -82 -103 -200 -248c123 -147 191 -243 222 -296
c23 -39 73 -40 73 -78c0 -17 -12 -28 -29 -28h-219c-25 0 -31 12 -31 30c0 35 40 21 40 48c0 36 -142 202 -164 226c-58 -69 -142 -185 -142 -224c0 -23 48 -12 48 -52c0 -19 -12 -28 -34 -28h-168c-20 0 -28 9 -28 28c0 39 33 6 101 100l173 239c-87 102 -149 196 -202 275
c-22 33 -68 23 -68 60c0 22 15 30 28 30z" />
    <glyph glyph-name="Y" unicode="Y" horiz-adv-x="720" 
d="M18 732h225c15 0 30 -8 30 -30c0 -36 -46 -29 -46 -46c0 -37 127 -224 178 -290c54 75 167 235 167 276c0 37 -57 24 -57 62c0 20 11 28 33 28h155c16 0 23 -10 23 -27c0 -32 -27 -14 -60 -72c-27 -47 -67 -119 -152 -236l-65 -91v-208c0 -49 56 -25 56 -68
c0 -21 -14 -30 -43 -30h-174c-28 0 -43 9 -43 30c0 43 56 19 56 68v190c-129 143 -181 247 -248 360c-15 25 -60 19 -60 57c0 17 9 27 25 27z" />
    <glyph glyph-name="Z" unicode="Z" horiz-adv-x="600" 
d="M103 732h430c17 0 46 -12 46 -34c0 -119 -386 -569 -386 -619c0 -7 6 -11 17 -11h136c173 0 171 89 219 89c18 0 25 -11 25 -28c0 -48 -14 -129 -43 -129h-470c-36 0 -57 15 -57 45c0 104 385 554 385 607c0 16 -24 12 -72 12c-150 0 -173 -10 -213 -52
c-14 -15 -23 -29 -41 -29c-14 0 -29 8 -29 30c0 64 20 119 53 119z" />
    <glyph glyph-name="bracketleft" unicode="[" horiz-adv-x="280" 
d="M95 732h127c41 0 46 -17 46 -30c0 -44 -84 -22 -84 -81v-686c0 -59 84 -37 84 -81c0 -14 -6 -30 -46 -30h-127c-18 0 -27 6 -27 31v848c0 22 8 29 27 29z" />
    <glyph glyph-name="backslash" unicode="\" horiz-adv-x="278" 
d="M-62 748h64c12 0 18 -9 24 -23l325 -720c1 -2 3 -8 3 -14s-9 -7 -14 -7h-64c-12 0 -18 8 -24 22l-325 721c-1 2 -3 8 -3 14s9 7 14 7z" />
    <glyph glyph-name="bracketright" unicode="]" horiz-adv-x="280" 
d="M58 732h127c18 0 27 -6 27 -31v-848c0 -22 -8 -29 -27 -29h-127c-41 0 -46 17 -46 30c0 44 84 22 84 81v686c0 59 -84 37 -84 81c0 14 6 30 46 30z" />
    <glyph glyph-name="asciicircum" unicode="^" horiz-adv-x="600" 
d="M264 732h72l180 -365h-95l-121 257l-122 -257h-94z" />
    <glyph glyph-name="underscore" unicode="_" horiz-adv-x="500" 
d="M0 -75h500v-50h-500v50z" />
    <glyph glyph-name="quoteleft" unicode="&#x2018;" horiz-adv-x="300" 
d="M76 585c0 89 89 163 111 163c8 0 19 -8 19 -16c0 -18 -59 -39 -66 -121c10 1 17 3 26 3c35 0 62 -24 62 -60c0 -38 -38 -60 -74 -60c-52 0 -78 42 -78 91z" />
    <glyph glyph-name="a" unicode="a" horiz-adv-x="550" 
d="M58 410c0 48 98 78 187 78c178 0 237 -85 237 -173v-220c0 -47 50 -34 50 -65c0 -17 -5 -30 -44 -30h-84c-30 0 -42 13 -42 43v11h-4c-30 -44 -95 -64 -158 -64c-114 0 -176 70 -176 148c0 134 180 188 328 188c0 59 -35 102 -100 102c-79 0 -85 -58 -150 -58
c-26 0 -44 15 -44 40zM352 272c-114 -2 -190 -67 -190 -133c0 -46 38 -93 90 -93c72 0 100 76 100 110v116z" />
    <glyph glyph-name="b" unicode="b" horiz-adv-x="580" 
d="M12 700c0 35 0 35 146 62c26 0 36 -14 36 -60v-275c43 41 93 61 148 61c139 0 214 -102 214 -234c0 -161 -116 -264 -278 -264c-155 0 -214 86 -214 192v452c0 46 -52 36 -52 66zM194 293v-83c0 -109 38 -160 101 -160c71 0 123 54 123 178c0 119 -44 196 -113 196
c-46 0 -111 -35 -111 -131z" />
    <glyph glyph-name="c" unicode="c" horiz-adv-x="500" 
d="M24 232c0 149 112 256 260 256c94 0 185 -48 185 -104c0 -29 -25 -48 -63 -48c-59 0 -46 98 -126 98c-69 0 -118 -82 -118 -202c0 -107 65 -170 139 -170c96 0 122 77 156 77c13 0 25 -10 25 -24c0 -42 -89 -125 -210 -125c-142 0 -248 98 -248 242z" />
    <glyph glyph-name="d" unicode="d" horiz-adv-x="580" 
d="M334 704c0 11 9 22 24 28c43 16 112 30 127 30c22 0 35 -4 35 -33v-634c0 -48 48 -39 48 -65c0 -16 -5 -30 -44 -30h-81c-43 0 -41 25 -44 58v1c-38 -45 -83 -69 -161 -69c-154 0 -214 115 -214 238c0 142 98 260 245 260c48 0 81 -13 121 -40v186c0 45 -56 36 -56 70z
M284 424c-97 0 -122 -104 -122 -183c0 -128 55 -183 123 -183c58 0 105 48 105 92v180c0 49 -35 94 -106 94z" />
    <glyph glyph-name="e" unicode="e" horiz-adv-x="530" 
d="M24 227c0 144 89 261 284 261c85 0 194 -39 194 -138c0 -124 -188 -158 -332 -166c13 -81 78 -122 139 -122c67 0 112 33 141 60c13 13 22 21 37 21s23 -8 23 -23c0 -49 -109 -130 -231 -130c-144 0 -255 101 -255 237zM299 434c-84 0 -137 -77 -137 -190v-6
c89 9 210 37 210 125c0 41 -23 71 -73 71z" />
    <glyph glyph-name="f" unicode="f" horiz-adv-x="330" 
d="M93 478c-1 116 10 292 169 292c38 0 89 -19 89 -62c0 -28 -19 -52 -48 -52c-28 0 -36 28 -56 28c-5 0 -27 1 -27 -97v-109h69c24 0 36 -11 36 -32c0 -22 -12 -32 -36 -32h-67v-317c0 -62 47 -32 47 -70c0 -19 -15 -27 -35 -27h-154c-20 0 -35 8 -35 27c0 36 47 10 47 70
v317c-34 2 -72 -8 -72 32c0 41 39 30 73 32z" />
    <glyph glyph-name="g" unicode="g" horiz-adv-x="560" 
d="M24 248c0 153 100 240 260 240c77 0 140 -11 203 -10c60 1 62 -20 62 -32c0 -32 -25 -35 -93 -34c39 -40 62 -95 62 -154c0 -74 -31 -145 -97 -183c56 -16 111 -57 111 -115c0 -90 -85 -156 -268 -156c-152 0 -228 34 -228 88c0 50 61 80 101 80c20 0 33 -6 33 -18
c0 -9 -10 -19 -10 -32c0 -16 12 -44 109 -44c102 0 137 37 137 76c0 40 -34 69 -71 85c-22 -8 -46 -11 -68 -11c-137 0 -243 81 -243 220zM270 428c-82 0 -108 -96 -108 -168c0 -110 48 -168 109 -168c60 0 109 57 109 168c0 105 -45 168 -110 168z" />
    <glyph glyph-name="h" unicode="h" horiz-adv-x="590" 
d="M15 700c0 29 129 62 148 62c26 0 36 -14 36 -60v-268c43 33 96 54 155 54c123 0 181 -63 181 -191v-200c0 -62 47 -32 47 -70c0 -19 -15 -27 -35 -27h-154c-20 0 -35 8 -35 27c0 36 47 10 47 70v195c0 75 -16 122 -101 122c-73 0 -105 -65 -105 -106v-211
c0 -62 47 -32 47 -70c0 -19 -15 -27 -35 -27h-154c-20 0 -35 8 -35 27c0 36 47 10 47 70v537c0 46 -54 36 -54 66z" />
    <glyph glyph-name="i" unicode="i" horiz-adv-x="270" 
d="M48 604c0 43 33 70 83 70c47 0 79 -27 79 -70c0 -44 -32 -70 -83 -70c-47 0 -79 27 -79 70zM23 426c0 13 9 18 26 24c43 15 102 38 122 38c27 0 36 -15 36 -69v-323c0 -62 47 -32 47 -70c0 -17 -12 -26 -35 -26h-154c-23 0 -35 9 -35 26c0 36 47 10 47 70v264
c0 46 -54 36 -54 66z" />
    <glyph glyph-name="j" unicode="j" horiz-adv-x="270" 
d="M60 604c0 43 33 70 83 70c47 0 79 -27 79 -70c0 -44 -32 -70 -83 -70c-47 0 -79 27 -79 70zM35 426c0 13 11 19 26 24c42 14 97 38 122 38c27 0 36 -15 36 -69v-376c0 -105 -32 -239 -167 -239c-35 0 -92 14 -92 57c0 29 24 47 51 47c33 0 49 -26 60 -26
c13 0 18 23 18 94v384c0 46 -54 36 -54 66z" />
    <glyph glyph-name="k" unicode="k" horiz-adv-x="560" 
d="M15 700c0 29 129 62 148 62c26 0 36 -14 36 -60v-444c36 18 163 115 163 151c0 23 -50 13 -50 45c0 15 9 24 24 24h146c11 0 36 -3 36 -24c0 -28 -36 -28 -66 -59c-26 -26 -58 -53 -104 -107c98 -97 137 -171 164 -214c16 -26 52 -22 52 -50c0 -16 -11 -24 -29 -24h-175
c-15 0 -30 10 -30 28c0 22 28 20 28 32c0 18 -65 112 -102 158l-57 -40v-81c0 -62 47 -32 47 -70c0 -19 -15 -27 -35 -27h-154c-20 0 -35 8 -35 27c0 36 47 10 47 70v537c0 46 -54 36 -54 66z" />
    <glyph glyph-name="l" unicode="l" horiz-adv-x="270" 
d="M21 705c0 22 109 57 148 57c15 0 36 -4 36 -62v-603c0 -62 47 -32 47 -70c0 -19 -15 -27 -35 -27h-154c-20 0 -35 8 -35 27c0 36 47 10 47 70v537c0 50 -54 29 -54 71z" />
    <glyph glyph-name="m" unicode="m" horiz-adv-x="880" 
d="M22 430c0 38 109 58 130 58c31 0 34 -22 36 -80h2c36 54 98 80 160 80c61 0 112 -26 138 -80c41 56 99 80 174 80c101 0 167 -62 167 -156v-235c0 -62 47 -32 47 -70c0 -19 -15 -27 -35 -27h-154c-20 0 -35 8 -35 27c0 36 47 10 47 70v230c0 47 -22 87 -78 87
c-67 0 -104 -52 -104 -84v-233c0 -62 47 -32 47 -70c0 -19 -15 -27 -35 -27h-154c-20 0 -35 8 -35 27c0 36 47 10 47 70v230c0 47 -22 87 -78 87c-67 0 -104 -52 -104 -84v-233c0 -62 47 -32 47 -70c0 -19 -15 -27 -35 -27h-154c-20 0 -35 8 -35 27c0 36 47 10 47 70v250
c0 74 -53 38 -53 83z" />
    <glyph glyph-name="n" unicode="n" horiz-adv-x="590" 
d="M22 430c0 38 109 58 130 58c31 0 34 -22 36 -80c47 54 102 80 165 80c123 0 181 -63 181 -191v-200c0 -62 47 -32 47 -70c0 -19 -15 -27 -35 -27h-154c-20 0 -35 8 -35 27c0 36 47 10 47 70v195c0 74 -14 122 -95 122c-72 0 -104 -65 -104 -106v-211c0 -62 47 -32 47 -70
c0 -19 -15 -27 -35 -27h-154c-20 0 -35 8 -35 27c0 36 47 10 47 70v250c0 74 -53 38 -53 83z" />
    <glyph glyph-name="o" unicode="o" horiz-adv-x="590" 
d="M24 239c0 148 121 249 271 249s271 -101 271 -249s-121 -249 -271 -249s-271 101 -271 249zM294 428c-100 0 -132 -105 -132 -189c0 -125 58 -189 133 -189s133 64 133 189c0 120 -54 189 -134 189z" />
    <glyph glyph-name="p" unicode="p" horiz-adv-x="610" 
d="M22 430c0 38 115 58 136 58c34 0 38 -21 44 -76c38 55 89 76 162 76c140 0 222 -118 222 -246c0 -139 -95 -252 -240 -252c-40 0 -109 8 -109 46c0 12 8 26 25 26c8 0 37 -4 61 -4c96 0 125 108 125 181c0 76 -29 185 -124 185c-87 0 -113 -89 -113 -143v-371
c0 -60 57 -32 57 -72c0 -23 -35 -26 -45 -26h-154c-20 0 -35 8 -35 27c0 36 47 10 47 70v438c0 74 -59 38 -59 83z" />
    <glyph glyph-name="q" unicode="q" horiz-adv-x="570" 
d="M24 228c0 141 107 260 244 260c58 0 105 -16 162 -46c22 28 58 45 72 45c13 0 18 -6 18 -41v-537c0 -62 47 -32 47 -70c0 -19 -15 -27 -35 -27h-154c-16 0 -44 7 -44 22c0 40 56 16 56 76v134h-2c-37 -41 -91 -54 -144 -54c-132 0 -220 113 -220 238zM288 424
c-92 0 -126 -113 -126 -191c0 -121 57 -175 123 -175c60 0 105 43 105 94v178c0 50 -37 94 -102 94z" />
    <glyph glyph-name="r" unicode="r" horiz-adv-x="400" 
d="M23 417c0 28 28 36 58 49s56 22 69 22c43 0 51 -82 54 -117h2c24 56 74 117 133 117c41 0 67 -31 67 -70c0 -29 -14 -56 -47 -56c-16 0 -40 16 -60 16c-44 0 -79 -76 -79 -141v-140c0 -62 47 -32 47 -70c0 -19 -15 -27 -35 -27h-154c-20 0 -35 8 -35 27c0 36 47 10 47 70
v209c0 106 -67 71 -67 111z" />
    <glyph glyph-name="s" unicode="s" horiz-adv-x="450" 
d="M41 328c0 112 108 160 206 160c93 0 166 -34 166 -76c0 -61 -6 -65 -22 -65c-46 0 -41 81 -144 81c-62 0 -80 -37 -80 -66c0 -95 269 -31 269 -200c0 -107 -89 -172 -218 -172c-116 0 -194 75 -194 107c0 22 14 51 40 51c53 0 46 -98 150 -98c52 0 92 30 92 71
c0 109 -265 29 -265 207z" />
    <glyph glyph-name="t" unicode="t" horiz-adv-x="340" 
d="M3 446c0 29 27 30 56 32c112 7 82 174 127 174c16 0 26 -6 26 -36v-138h84c24 0 36 -11 36 -32c0 -22 -12 -32 -36 -32h-84v-293c0 -103 125 -22 125 -86c0 -23 -11 -35 -33 -35h-149c-57 0 -73 12 -73 61v353c-54 -2 -79 -4 -79 32z" />
    <glyph glyph-name="u" unicode="u" horiz-adv-x="570" 
d="M16 438c0 32 119 50 135 50c15 0 41 -4 41 -70v-246c0 -92 29 -108 80 -108c63 0 112 43 112 90v209c0 66 -46 38 -46 75c0 32 119 50 135 50c15 0 41 -4 41 -70v-323c0 -52 51 -40 51 -68c0 -18 -12 -27 -35 -27h-81c-48 0 -51 21 -57 63c-45 -47 -105 -73 -166 -73
c-116 0 -164 77 -164 161v212c0 66 -46 38 -46 75z" />
    <glyph glyph-name="v" unicode="v" horiz-adv-x="500" 
d="M29 478h171c9 0 28 -4 28 -22c0 -32 -50 -23 -50 -59c0 -74 70 -237 114 -311c55 88 104 226 104 297c0 47 -50 38 -50 73c0 18 17 22 30 22h113c8 0 21 -6 21 -23c0 -25 -20 -24 -34 -77c-50 -190 -130 -334 -156 -370c-11 -15 -13 -18 -58 -18c-48 0 -66 21 -82 46
c-76 115 -117 256 -142 366c-6 27 -40 23 -40 56c0 13 11 20 31 20z" />
    <glyph glyph-name="w" unicode="w" horiz-adv-x="760" 
d="M25 478h155c12 0 30 -7 30 -24c0 -25 -40 -19 -40 -56c0 -44 53 -235 90 -310c47 83 76 192 76 289c0 68 -46 41 -46 79c0 18 17 22 28 22h160c14 0 22 -9 22 -24c0 -25 -36 -17 -36 -53c0 -60 35 -180 86 -313c58 77 98 223 98 295c0 51 -52 43 -52 73c0 15 10 22 28 22
h123c16 0 25 -9 25 -22c0 -24 -32 -20 -44 -78c-19 -89 -92 -300 -140 -366c-17 -23 -46 -22 -69 -22c-63 0 -85 47 -140 210h-2c-61 -163 -92 -210 -151 -210c-41 0 -54 10 -70 34c-45 68 -101 254 -122 369c-9 49 -36 34 -36 60c0 16 15 25 27 25z" />
    <glyph glyph-name="x" unicode="x" horiz-adv-x="530" 
d="M29 478h166c23 0 35 -8 35 -26c0 -16 -30 -23 -31 -30c0 -2 3 -20 93 -118c34 42 65 84 65 102c0 20 -38 21 -38 50c0 18 24 22 41 22h112c15 0 23 -9 23 -23c0 -30 -13 -8 -59 -64l-109 -133c72 -83 109 -126 134 -160c37 -51 68 -35 68 -74c0 -17 -16 -24 -26 -24h-178
c-12 0 -30 6 -30 24c0 22 30 29 30 43c0 16 -68 89 -99 121c-65 -66 -76 -96 -76 -111c0 -35 53 -21 53 -55c0 -16 -8 -22 -26 -22h-145c-26 0 -31 8 -31 24c0 26 27 12 83 86l103 122c-55 69 -99 125 -120 156c-17 26 -62 30 -62 66c0 17 14 24 24 24z" />
    <glyph glyph-name="y" unicode="y" horiz-adv-x="510" 
d="M27 478h151c18 0 29 -9 29 -26c0 -27 -35 -15 -35 -74c0 -86 45 -298 120 -298c64 0 98 239 98 299c0 50 -56 46 -56 79c0 13 7 20 20 20h134c11 0 26 -5 26 -21c0 -27 -44 -30 -50 -93c-12 -129 -113 -560 -347 -560c-33 0 -89 15 -89 52c0 32 23 48 60 48
c28 0 53 -16 73 -16c37 0 106 66 133 133c-26 -9 -34 -9 -39 -9c-178 0 -207 272 -225 391c-5 34 -32 25 -32 50c0 17 10 25 29 25z" />
    <glyph glyph-name="z" unicode="z" horiz-adv-x="460" 
d="M94 478h292c37 0 58 -15 58 -46c0 -23 -19 -48 -44 -80l-223 -292h116c93 0 97 84 131 84c10 0 20 -7 20 -27c0 -70 -30 -117 -68 -117h-295c-56 0 -62 22 -62 39c0 20 21 51 44 80l243 299h-114c-112 -3 -96 -67 -134 -67c-17 0 -18 29 -18 39c0 48 23 88 54 88z" />
    <glyph glyph-name="braceleft" unicode="{" horiz-adv-x="290" 
d="M150 748h83c28 0 33 -14 33 -32c0 -30 -22 -30 -40 -32c-21 -2 -28 -10 -28 -70v-202c0 -83 -21 -116 -81 -133v-2c58 -17 81 -48 81 -133v-202c0 -62 6 -69 28 -70c18 -1 40 -4 40 -32c0 -23 -9 -32 -33 -32h-83c-53 0 -68 23 -68 82v269c0 75 -24 102 -76 119
c51 17 76 42 76 119v269c0 58 15 82 68 82z" />
    <glyph glyph-name="bar" unicode="|" horiz-adv-x="222" 
d="M66 762h90v-762h-90v762z" />
    <glyph glyph-name="braceright" unicode="}" horiz-adv-x="290" 
d="M57 748h83c53 0 68 -23 68 -82v-269c0 -75 24 -102 76 -119c-51 -17 -76 -42 -76 -119v-269c0 -58 -15 -82 -68 -82h-83c-28 0 -33 14 -33 32c0 28 19 31 40 32c25 1 28 18 28 70v202c0 83 21 116 81 133v2c-58 17 -81 48 -81 133v202c0 59 -8 70 -28 70
c-18 0 -40 3 -40 32c0 23 9 32 33 32z" />
    <glyph glyph-name="asciitilde" unicode="~" horiz-adv-x="600" 
d="M407 253c41 0 66 35 88 68l42 -74c-30 -45 -66 -86 -131 -86c-71 0 -156 64 -213 64c-41 0 -66 -35 -88 -68l-42 74c30 45 66 86 131 86c71 0 156 -64 213 -64z" />
    <glyph glyph-name="exclamdown" unicode="&#xa1;" horiz-adv-x="330" 
d="M85 502c0 43 40 70 80 70s80 -27 80 -70c0 -41 -38 -70 -80 -70s-80 29 -80 70zM130 313c5 44 11 57 35 57c28 0 31 -19 37 -73l43 -386c1 -7 5 -33 5 -43c0 -48 -52 -64 -85 -64s-85 15 -85 64c0 10 4 36 5 43z" />
    <glyph glyph-name="cent" unicode="&#xa2;" 
d="M320 735c0 28 11 33 28 33c18 0 28 -5 28 -33v-108h1c60 -5 153 -37 153 -98c0 -28 -23 -48 -49 -48c-51 0 -57 63 -105 82v-346c88 6 108 73 140 73c14 0 25 -11 25 -24c0 -37 -69 -104 -165 -119v-94c0 -28 -11 -33 -28 -33c-18 0 -28 5 -28 33v93
c-128 7 -222 99 -222 234s93 235 221 247h1v108zM320 563c-68 -24 -88 -115 -88 -184c0 -78 32 -130 88 -152v336z" />
    <glyph glyph-name="sterling" unicode="&#xa3;" 
d="M132 524c0 138 114 224 240 224c102 0 200 -58 200 -174c0 -44 -25 -66 -61 -66c-22 0 -51 13 -51 39c0 14 8 29 8 43c0 56 -47 96 -101 96c-69 0 -111 -61 -111 -127c0 -43 23 -108 37 -155h139c25 0 36 -11 36 -35s-11 -35 -36 -35h-119c3 -26 5 -39 5 -56
c0 -65 -21 -113 -68 -155l2 -3c13 5 33 10 68 10c40 0 109 -34 153 -34c50 0 70 45 93 45s30 -14 30 -35c0 -48 -65 -122 -147 -122c-69 0 -147 48 -221 48c-59 0 -104 -47 -132 -47c-15 0 -29 13 -29 30c0 47 131 73 131 220c0 32 -7 63 -15 99h-87c-25 0 -36 11 -36 35
s11 35 36 35h63c-18 38 -27 81 -27 120z" />
    <glyph glyph-name="fraction" unicode="&#x2044;" horiz-adv-x="167" 
d="M301 748c12 0 33 1 33 -8c0 -5 0 -5 -4 -10l-435 -741c-3 -4 -6 -5 -29 -5c-12 0 -33 0 -33 8c0 4 2 6 34 61l402 685c5 9 4 10 32 10z" />
    <glyph glyph-name="yen" unicode="&#xa5;" 
d="M53 732h163c13 0 30 -6 30 -27c0 -33 -37 -27 -37 -52c0 -46 101 -215 145 -288c76 130 144 237 144 278c0 36 -41 27 -41 63c0 17 12 26 34 26h101c17 0 27 -10 27 -27c0 -31 -23 -23 -48 -69l-103 -184h85c23 0 34 -12 34 -35c0 -24 -10 -35 -34 -35h-124l-39 -71h163
c23 0 34 -12 34 -35c0 -24 -10 -35 -34 -35h-170v-143c0 -53 45 -27 45 -68c0 -21 -12 -30 -36 -30h-140c-24 0 -35 9 -35 30c0 42 46 17 46 68v143h-175c-24 0 -34 11 -34 35c0 23 11 35 34 35h166l-38 71h-128c-24 0 -34 11 -34 35c0 23 11 35 34 35h90l-103 190
c-18 34 -54 24 -54 63c0 19 11 27 32 27z" />
    <glyph glyph-name="florin" unicode="&#x192;" 
d="M272 477c21 173 109 311 260 311c64 0 96 -38 96 -73c0 -29 -12 -46 -38 -46c-47 0 -36 57 -84 57c-40 0 -81 -34 -114 -249h80c29 0 43 -10 43 -35s-14 -35 -43 -35h-89l-38 -253c-33 -212 -127 -350 -290 -350c-91 0 -139 58 -139 93c0 30 13 45 40 45
c51 0 51 -84 120 -84c77 0 113 62 145 282l39 267h-73c-29 0 -43 10 -43 35s14 35 43 35h85z" />
    <glyph glyph-name="section" unicode="&#xa7;" horiz-adv-x="560" 
d="M60 558c0 122 117 190 227 190c96 0 185 -38 194 -57c8 -17 25 -93 25 -113c0 -16 -11 -31 -29 -31c-50 0 -54 141 -186 141c-54 0 -121 -32 -121 -95c0 -153 367 -78 367 -297c0 -66 -33 -114 -76 -161c35 -39 56 -73 56 -125c0 -137 -129 -220 -258 -220
c-88 0 -154 36 -173 49c-22 15 -45 121 -45 155c0 17 10 32 29 32c57 0 51 -172 191 -172c65 0 138 47 138 118c0 169 -376 90 -376 315c0 52 28 102 91 152c-34 37 -54 67 -54 119zM441 250c0 100 -139 90 -275 155c-22 -23 -37 -44 -37 -78c0 -105 176 -93 280 -156
c16 26 32 50 32 79z" />
    <glyph glyph-name="currency" unicode="&#xa4;" 
d="M109 631l59 -59c38 33 94 51 152 51c59 0 115 -18 152 -51l59 59l53 -53l-57 -58c34 -38 51 -96 51 -154c0 -59 -17 -117 -51 -155l57 -58l-53 -53l-59 59c-38 -32 -94 -51 -152 -51s-114 19 -152 51l-59 -59l-53 53l57 58c-34 38 -51 96 -51 155c0 58 17 116 51 154
l-57 58zM319 535c-88 0 -165 -73 -165 -169c0 -94 74 -170 166 -170s166 76 166 170c0 92 -72 169 -167 169z" />
    <glyph glyph-name="quotesingle" unicode="'" horiz-adv-x="222" 
d="M70 691c0 42 17 57 41 57c25 0 41 -15 41 -57l-1 -25l-18 -201c-1 -13 -5 -33 -22 -33c-15 0 -21 16 -22 30l-18 204z" />
    <glyph glyph-name="quotedblleft" unicode="&#x201c;" horiz-adv-x="500" 
d="M76 585c0 89 89 163 111 163c8 0 19 -8 19 -16c0 -18 -59 -39 -66 -121c10 1 17 3 26 3c35 0 62 -24 62 -60c0 -38 -38 -60 -74 -60c-52 0 -78 42 -78 91zM284 585c0 89 89 163 111 163c8 0 19 -8 19 -16c0 -18 -59 -39 -66 -121c10 1 17 3 26 3c35 0 62 -24 62 -60
c0 -38 -38 -60 -74 -60c-52 0 -78 42 -78 91z" />
    <glyph glyph-name="guillemotleft" unicode="&#xab;" horiz-adv-x="360" 
d="M127 384c18 23 24 28 35 28c12 0 18 -9 18 -19c0 -5 -2 -15 -12 -36l-48 -103c-2 -5 -5 -10 -5 -15s3 -10 5 -15l48 -102c0 -1 12 -28 12 -37c0 -10 -6 -19 -18 -19c-11 0 -17 6 -35 29l-83 107c-15 20 -20 27 -20 38s7 19 28 46zM283 384c18 23 24 28 35 28
c12 0 18 -9 18 -19c0 -5 -2 -14 -12 -36l-48 -103c-2 -5 -5 -10 -5 -15s3 -10 5 -15l48 -102c0 -1 12 -28 12 -37c0 -10 -6 -19 -18 -19c-11 0 -17 6 -35 29l-83 107c-15 20 -20 27 -20 38s7 19 28 46z" />
    <glyph glyph-name="guilsinglleft" unicode="&#x2039;" horiz-adv-x="210" 
d="M127 384c18 23 24 28 35 28c12 0 18 -9 18 -19c0 -9 0 -9 -12 -36l-48 -103c-2 -5 -5 -10 -5 -15s3 -10 5 -15l48 -102c0 -1 12 -28 12 -37c0 -10 -6 -19 -18 -19c-11 0 -17 5 -35 28l-83 108c-15 20 -20 27 -20 38s7 19 28 46z" />
    <glyph glyph-name="guilsinglright" unicode="&#x203a;" horiz-adv-x="210" 
d="M30 393c0 10 6 19 18 19c11 0 17 -5 35 -28l83 -107c15 -21 20 -28 20 -37c0 -13 -7 -22 -28 -48l-75 -98c-18 -23 -24 -28 -35 -28c-12 0 -18 9 -18 19c0 4 4 18 12 36l48 103c2 5 5 10 5 15s-3 10 -5 15l-48 103c0 1 -12 27 -12 36z" />
    <glyph glyph-name="endash" unicode="&#x2013;" horiz-adv-x="500" 
d="M9 287h482c24 0 27 -26 27 -48s-3 -48 -27 -48h-482c-24 0 -27 26 -27 48s3 48 27 48z" />
    <glyph glyph-name="dagger" unicode="&#x2020;" horiz-adv-x="510" 
d="M200 690c0 32 24 58 55 58s55 -26 55 -58l-21 -169l109 19c4 0 18 3 31 3c27 0 58 -22 58 -57s-31 -57 -58 -57c-12 0 -27 3 -29 3l-111 19l25 -135l-35 -454c-1 -13 -8 -26 -24 -26c-17 0 -23 14 -24 25l-35 455l25 135l-109 -19c-5 0 -17 -3 -31 -3
c-27 0 -58 22 -58 57s31 57 58 57c12 0 27 -3 29 -3l111 -19z" />
    <glyph glyph-name="daggerdbl" unicode="&#x2021;" horiz-adv-x="510" 
d="M200 690c0 32 24 58 55 58s55 -26 55 -58l-21 -169l109 19c4 0 18 3 31 3c27 0 58 -22 58 -57s-31 -57 -58 -57c-12 0 -27 3 -29 3l-111 19l25 -159l-25 -159l109 19c4 0 18 3 31 3c27 0 58 -22 58 -57s-31 -57 -58 -57c-12 0 -27 3 -29 3l-111 19l21 -169
c0 -32 -24 -58 -55 -58s-55 26 -55 58l21 169l-109 -19c-5 0 -17 -3 -31 -3c-27 0 -58 22 -58 57s31 57 58 57c12 0 27 -3 29 -3l111 -19l-25 159l25 159l-109 -19c-5 0 -17 -3 -31 -3c-27 0 -58 22 -58 57s31 57 58 57c12 0 27 -3 29 -3l111 -19z" />
    <glyph glyph-name="periodcentered" unicode="&#xb7;" horiz-adv-x="320" 
d="M89 239c0 39 32 71 71 71s71 -32 71 -71s-32 -71 -71 -71s-71 32 -71 71z" />
    <glyph glyph-name="paragraph" unicode="&#xb6;" horiz-adv-x="600" 
d="M254 732h220c36 0 44 -15 44 -60v-812c0 -32 -16 -48 -46 -48s-46 16 -46 48v751c0 27 -10 31 -24 31s-24 -4 -24 -31v-751c0 -32 -16 -48 -46 -48s-46 16 -46 48v406c-23 -23 -42 -34 -76 -34c-96 0 -160 107 -160 233c0 178 104 267 204 267z" />
    <glyph glyph-name="bullet" unicode="&#x2022;" horiz-adv-x="500" 
d="M67 366c0 101 82 183 183 183s183 -82 183 -183s-82 -183 -183 -183s-183 82 -183 183z" />
    <glyph glyph-name="quotesinglbase" unicode="&#x201a;" horiz-adv-x="300" 
d="M72 59c0 38 38 60 74 60c52 0 78 -42 78 -91c0 -89 -88 -163 -111 -163c-8 0 -19 8 -19 16c0 17 59 39 66 121c-10 -1 -17 -3 -26 -3c-35 0 -62 24 -62 60z" />
    <glyph glyph-name="quotedblbase" unicode="&#x201e;" horiz-adv-x="500" 
d="M64 59c0 38 38 60 74 60c52 0 78 -42 78 -91c0 -89 -89 -163 -111 -163c-8 0 -19 8 -19 16c0 17 59 39 66 121c-10 -1 -17 -3 -26 -3c-35 0 -62 24 -62 60zM272 59c0 38 38 60 74 60c52 0 78 -42 78 -91c0 -89 -89 -163 -111 -163c-8 0 -19 8 -19 16c0 17 59 39 66 121
c-10 -1 -17 -3 -26 -3c-35 0 -62 24 -62 60z" />
    <glyph glyph-name="quotedblright" unicode="&#x201d;" horiz-adv-x="500" 
d="M64 688c0 38 38 60 74 60c52 0 78 -42 78 -91c0 -89 -89 -163 -111 -163c-8 0 -19 8 -19 16c0 18 59 39 66 121c-10 -1 -17 -3 -26 -3c-35 0 -62 24 -62 60zM272 688c0 38 38 60 74 60c52 0 78 -42 78 -91c0 -89 -89 -163 -111 -163c-8 0 -19 8 -19 16c0 18 59 39 66 121
c-10 -1 -17 -3 -26 -3c-35 0 -62 24 -62 60z" />
    <glyph glyph-name="guillemotright" unicode="&#xbb;" horiz-adv-x="360" 
d="M24 393c0 10 6 19 18 19c11 0 17 -5 35 -28l83 -108c15 -21 20 -27 20 -36c0 -13 -7 -22 -28 -48l-75 -98c-18 -23 -24 -28 -35 -28c-12 0 -18 9 -18 19c0 5 3 16 12 36l48 103c2 5 5 10 5 15s-3 10 -5 15l-48 103c0 1 -12 27 -12 36zM180 393c0 10 6 19 18 19
c11 0 17 -5 35 -28l83 -108c15 -21 20 -27 20 -36c0 -13 -7 -22 -28 -48l-75 -98c-18 -23 -24 -28 -35 -28c-12 0 -18 9 -18 19c0 4 3 17 12 36l48 103c2 5 5 10 5 15s-3 10 -5 15l-48 103c0 1 -12 27 -12 36z" />
    <glyph glyph-name="ellipsis" unicode="&#x2026;" horiz-adv-x="1000" 
d="M87 60c0 41 38 70 80 70s80 -29 80 -70c0 -43 -40 -70 -80 -70s-80 27 -80 70zM420 60c0 41 38 70 80 70s80 -29 80 -70c0 -43 -40 -70 -80 -70s-80 27 -80 70zM753 60c0 41 38 70 80 70s80 -29 80 -70c0 -43 -40 -70 -80 -70s-80 27 -80 70z" />
    <glyph glyph-name="perthousand" unicode="&#x2030;" horiz-adv-x="1000" 
d="M7 584c0 111 71 164 155 164s155 -53 155 -164s-71 -164 -155 -164s-155 53 -155 164zM472 700v-1c23 43 21 49 59 49c21 0 27 -3 27 -9c0 -2 0 -3 -13 -27l-382 -682c-22 -41 -21 -46 -58 -46c-21 0 -27 3 -27 9c0 2 0 3 13 27zM162 710c-51 0 -51 -67 -51 -126
c0 -98 14 -126 51 -126s51 28 51 126c0 101 -15 126 -51 126zM319 156c0 111 71 164 155 164s155 -53 155 -164s-71 -164 -155 -164s-155 53 -155 164zM683 156c0 111 71 164 155 164s155 -53 155 -164s-71 -164 -155 -164s-155 53 -155 164zM474 282
c-51 0 -51 -67 -51 -126c0 -98 14 -126 51 -126s51 28 51 126c0 101 -15 126 -51 126zM838 282c-51 0 -51 -67 -51 -126c0 -98 14 -126 51 -126s51 28 51 126c0 101 -15 126 -51 126z" />
    <glyph glyph-name="questiondown" unicode="&#xbf;" horiz-adv-x="500" 
d="M211 502c0 43 40 70 80 70s80 -27 80 -70c0 -41 -38 -70 -80 -70s-80 29 -80 70zM27 -8c0 230 230 217 231 278c1 68 0 98 38 98c25 0 40 -10 40 -50v-114c0 -53 -167 -42 -167 -220c0 -68 34 -126 105 -126c39 0 81 20 81 68c0 11 -4 18 -4 31c0 15 19 43 63 43
c32 0 59 -18 59 -54c0 -92 -108 -142 -218 -142c-145 0 -228 89 -228 188z" />
    <glyph glyph-name="grave" unicode="`" horiz-adv-x="259" 
d="M-20 691c0 33 33 27 58 27c47 0 57 4 82 -39l54 -94c3 -4 15 -22 15 -33s-8 -18 -19 -18c-9 0 -28 13 -37 20l-121 96c-15 11 -32 20 -32 41z" />
    <glyph glyph-name="acute" unicode="&#xb4;" horiz-adv-x="259" 
d="M138 679c26 43 36 39 83 39c25 0 58 6 58 -27c0 -21 -17 -30 -32 -41l-120 -95c-10 -8 -28 -21 -38 -21s-19 7 -19 18s12 29 15 32z" />
    <glyph glyph-name="circumflex" unicode="&#x2c6;" horiz-adv-x="259" 
d="M71 682c10 10 34 40 57 40c14 0 30 -11 61 -42l91 -93c15 -15 22 -24 22 -36c0 -7 -9 -17 -18 -17c-1 0 -10 -1 -41 18l-114 72l-113 -71c-33 -21 -41 -19 -42 -19c-9 0 -18 10 -18 17c0 13 9 22 21 34z" />
    <glyph glyph-name="tilde" unicode="&#x2dc;" horiz-adv-x="259" 
d="M-48 570c0 55 67 107 122 107c64 0 104 -54 148 -54c38 0 50 44 68 44c9 0 17 -6 17 -20c0 -42 -58 -98 -126 -98c-64 0 -104 54 -148 54c-38 0 -42 -53 -65 -53c-10 0 -16 7 -16 20z" />
    <glyph glyph-name="macron" unicode="&#xaf;" horiz-adv-x="259" 
d="M20 650h219c25 0 36 -11 36 -37s-11 -37 -36 -37h-219c-25 0 -36 11 -36 37s11 37 36 37z" />
    <glyph glyph-name="breve" unicode="&#x2d8;" horiz-adv-x="259" 
d="M-23 679c0 15 6 27 18 27c30 0 33 -96 134 -96c100 0 104 96 134 96c12 0 18 -12 18 -27c0 -74 -69 -145 -152 -145s-152 71 -152 145z" />
    <glyph glyph-name="dotaccent" unicode="&#x2d9;" horiz-adv-x="259" 
d="M52 613c0 45 39 66 77 66s77 -21 77 -66s-39 -66 -77 -66s-77 21 -77 66z" />
    <glyph glyph-name="dieresis" unicode="&#xa8;" horiz-adv-x="259" 
d="M-52 613c0 45 39 66 77 66s77 -21 77 -66s-39 -66 -77 -66s-77 21 -77 66zM157 613c0 45 39 66 77 66s77 -21 77 -66s-39 -66 -77 -66s-77 21 -77 66z" />
    <glyph glyph-name="ring" unicode="&#x2da;" horiz-adv-x="259" 
d="M26 625c0 57 48 104 104 104s104 -47 104 -104s-47 -104 -104 -104s-104 47 -104 104zM130 685c-32 0 -60 -26 -60 -60c0 -33 27 -60 60 -60s60 27 60 60c0 32 -26 60 -60 60z" />
    <glyph glyph-name="cedilla" unicode="&#xb8;" horiz-adv-x="259" 
d="M84 -75l34 75h52l-24 -56h16c57 0 92 -29 92 -79c0 -65 -56 -85 -119 -85c-65 0 -93 30 -93 50c0 10 7 22 20 22c30 0 42 -20 67 -20c20 0 45 14 45 36c0 16 -12 28 -36 28c-25 0 -40 -5 -48 -5c-6 0 -11 4 -11 11c0 10 4 20 5 23z" />
    <glyph glyph-name="hungarumlaut" unicode="&#x2dd;" horiz-adv-x="259" 
d="M68 674c26 49 41 44 85 44c25 0 58 6 58 -27c0 -21 -16 -28 -40 -48l-102 -83c-8 -7 -32 -26 -44 -26c-10 0 -19 7 -19 18s13 29 16 34zM242 679c26 43 36 39 83 39c25 0 58 6 58 -27c0 -21 -17 -30 -32 -41l-120 -95c-10 -8 -28 -21 -38 -21s-19 7 -19 18s12 29 15 32z
" />
    <glyph glyph-name="ogonek" unicode="&#x2db;" horiz-adv-x="259" 
d="M27 -111c0 45 28 87 103 111h55c-38 -23 -78 -61 -78 -103c0 -36 24 -59 58 -59c37 0 55 43 73 43c13 0 25 -10 25 -23c0 -29 -50 -72 -121 -72c-72 0 -115 39 -115 103z" />
    <glyph glyph-name="caron" unicode="&#x2c7;" horiz-adv-x="259" 
d="M-43 705c0 7 9 17 18 17c10 0 27 -9 37 -16l118 -74l116 73c8 5 28 17 39 17c9 0 18 -10 18 -17c0 -13 -9 -22 -21 -34l-94 -97c-10 -10 -34 -40 -57 -40c-14 0 -30 11 -61 42l-91 93c-15 15 -22 24 -22 36z" />
    <glyph glyph-name="emdash" unicode="&#x2014;" horiz-adv-x="1000" 
d="M9 287h982c24 0 27 -26 27 -48s-3 -48 -27 -48h-982c-24 0 -27 26 -27 48s3 48 27 48z" />
    <glyph glyph-name="AE" unicode="&#xc6;" horiz-adv-x="980" 
d="M429 732h453c45 0 56 -20 56 -103c0 -19 -2 -31 -17 -31c-21 0 -28 20 -69 45c-26 16 -69 21 -145 21c-103 0 -121 -4 -121 -65v-169h169c54 0 58 34 84 34c25 0 27 -28 27 -68c0 -52 -2 -70 -26 -70c-30 0 -22 36 -86 36h-168v-188c0 -105 16 -106 69 -106
c181 0 225 21 241 46c15 23 27 37 47 37c19 0 29 -12 29 -34c0 -76 -14 -117 -70 -117h-467c-28 0 -43 9 -43 30c0 43 56 19 56 68v148c-103 0 -223 0 -264 -5c-16 -48 -51 -115 -51 -151c0 -35 39 -33 39 -67c0 -15 -12 -23 -33 -23h-130c-9 0 -23 5 -23 28
c0 32 35 24 55 74c88 216 181 417 326 589c19 22 35 41 62 41zM216 314h232v293c0 24 -2 49 -7 51h-1c-15 0 -137 -150 -224 -344z" />
    <glyph glyph-name="ordfeminine" unicode="&#xaa;" horiz-adv-x="330" 
d="M22 701c0 37 90 47 123 47c116 0 154 -53 154 -103v-133c0 -28 32 -20 32 -38c0 -21 -16 -19 -56 -19c-35 0 -55 -4 -55 26v6h-3c-19 -26 -60 -37 -102 -37c-59 0 -115 30 -115 88c0 95 159 114 210 113v4c0 32 -23 57 -61 57c-52 0 -55 -35 -98 -35c-17 0 -29 9 -29 24z
M212 618c-48 -2 -122 -26 -122 -80c0 -27 25 -55 59 -55c45 0 63 42 63 64v71z" />
    <glyph glyph-name="Lslash" unicode="&#x141;" horiz-adv-x="600" 
d="M67 732h174c28 0 43 -9 43 -30c0 -43 -56 -19 -56 -68v-177l98 71c3 2 19 15 36 15c18 0 33 -20 33 -37c0 -14 -5 -25 -17 -34l-150 -108v-251c0 -36 14 -45 116 -45c217 0 186 94 240 94c13 0 22 -8 22 -39c0 -54 -30 -123 -78 -123h-461c-28 0 -43 9 -43 30
c0 43 56 19 56 68v158c-26 -18 -31 -26 -51 -26c-19 0 -35 16 -35 39c0 12 6 21 19 31l67 49v285c0 49 -56 25 -56 68c0 21 14 30 43 30z" />
    <glyph glyph-name="Oslash" unicode="&#xd8;" horiz-adv-x="830" 
d="M641 791c13 20 21 39 60 39c24 0 37 -12 37 -27c0 -12 0 -12 -6 -20l-73 -115c87 -69 139 -177 139 -302c0 -216 -154 -382 -383 -382c-66 0 -122 14 -168 36l-69 -109c-8 -12 -19 -25 -50 -25c-22 0 -34 14 -34 27c0 20 9 35 14 42l68 106c-95 71 -144 183 -144 305
c0 216 154 382 383 382c66 0 125 -14 174 -38zM414 680c-127 0 -222 -119 -222 -314c0 -72 13 -146 48 -204l300 471c-35 32 -78 47 -126 47zM638 366c0 71 -13 142 -45 198l-298 -469c34 -29 75 -43 120 -43c140 0 223 136 223 314z" />
    <glyph glyph-name="OE" unicode="&#x152;" horiz-adv-x="1000" 
d="M13 362c0 252 165 386 327 386c82 0 134 -31 175 -88h2c1 50 -8 72 35 72h350c45 0 56 -20 56 -103c0 -19 -2 -31 -17 -31c-23 0 -34 26 -69 45c-26 14 -58 21 -151 21c-48 0 -63 -1 -63 -64v-170h129c54 0 58 34 84 34c25 0 27 -28 27 -68c0 -52 -2 -70 -26 -70
c-30 0 -22 36 -86 36h-128v-189c0 -101 13 -105 65 -105c136 0 174 23 193 46c16 18 21 37 47 37c19 0 29 -12 29 -34c0 -76 -14 -117 -70 -117h-372c-46 0 -33 48 -35 73l-2 -1c-33 -59 -105 -88 -173 -88c-161 0 -327 125 -327 378zM341 680c-155 0 -186 -168 -186 -341
c0 -187 73 -287 185 -287c116 0 178 108 178 321c0 185 -50 307 -177 307z" />
    <glyph glyph-name="ordmasculine" unicode="&#xba;" horiz-adv-x="354" 
d="M0 598c0 89 78 150 177 150c97 0 177 -61 177 -150c0 -88 -80 -148 -177 -148c-98 0 -177 60 -177 148zM176 712c-57 0 -86 -47 -86 -114c0 -60 24 -112 87 -112s87 53 87 112c0 65 -27 114 -88 114z" />
    <glyph glyph-name="ae" unicode="&#xe6;" horiz-adv-x="820" 
d="M52 402c0 27 46 86 192 86c67 0 157 -31 180 -58c41 35 113 58 168 58c87 0 205 -38 205 -146c0 -92 -89 -140 -234 -140c-36 0 -79 1 -101 6c3 -103 67 -146 130 -146c73 0 118 36 146 60c13 11 19 21 36 21c13 0 26 -10 26 -23c0 -49 -110 -130 -220 -130
c-87 0 -154 26 -194 74c-43 -51 -113 -74 -186 -74c-108 0 -176 51 -176 148c0 99 117 159 256 159c19 0 32 -4 56 -5c0 77 -27 136 -95 136c-79 0 -79 -64 -141 -64c-24 0 -48 19 -48 38zM587 434c-83 0 -126 -95 -123 -168h1c14 -2 30 -2 48 -2c64 0 154 28 154 90
c0 46 -31 80 -80 80zM305 235c-62 0 -143 -35 -143 -107c0 -33 21 -78 70 -78c60 0 104 48 104 117v65c-18 3 -21 3 -31 3z" />
    <glyph glyph-name="dotlessi" unicode="&#x131;" horiz-adv-x="270" 
d="M23 426c0 16 11 19 26 24c25 8 95 38 122 38s36 -15 36 -69v-323c0 -62 47 -32 47 -70c0 -17 -12 -26 -35 -26h-154c-23 0 -35 9 -35 26c0 36 47 10 47 70v264c0 46 -54 36 -54 66z" />
    <glyph glyph-name="lslash" unicode="&#x142;" horiz-adv-x="270" 
d="M21 705c0 22 109 57 148 57c15 0 36 -4 36 -62v-239c49 31 51 35 63 35c14 0 24 -17 24 -30c0 -9 -6 -13 -7 -14l-80 -52v-303c0 -62 47 -32 47 -70c0 -19 -15 -27 -35 -27h-154c-20 0 -35 8 -35 27c0 36 47 10 47 70v219c-56 -35 -53 -37 -66 -37c-14 0 -23 21 -23 29
c0 14 6 16 14 21l75 48v257c0 50 -54 29 -54 71z" />
    <glyph glyph-name="oslash" unicode="&#xf8;" horiz-adv-x="590" 
d="M386 475c41 73 41 89 75 89c23 0 32 -13 32 -27c0 -9 -4 -14 -5 -17l-40 -74c74 -43 118 -118 118 -207c0 -148 -121 -249 -271 -249c-29 0 -59 4 -86 13l-36 -65c-6 -11 -15 -26 -44 -26c-21 0 -30 12 -30 23s4 21 4 20l41 75c-73 42 -120 117 -120 209
c0 148 121 249 271 249c30 0 62 -4 91 -14v1zM294 428c-99 0 -132 -104 -132 -189c0 -42 7 -87 28 -124l163 298h-1c-18 10 -37 15 -58 15zM402 361l-160 -298c16 -9 34 -13 53 -13c76 0 133 65 133 189c0 41 -7 85 -26 122z" />
    <glyph glyph-name="oe" unicode="&#x153;" horiz-adv-x="890" 
d="M24 239c0 148 121 249 263 249c83 0 147 -31 185 -84c44 61 115 84 195 84c85 0 193 -39 193 -138c0 -128 -190 -158 -320 -166c4 -80 66 -122 128 -122c109 0 142 81 178 81c14 0 24 -9 24 -23c0 -49 -108 -130 -232 -130c-63 0 -128 17 -168 69
c-44 -52 -116 -69 -183 -69c-143 0 -263 102 -263 249zM658 434c-75 0 -117 -92 -118 -196c117 16 190 57 190 125c0 43 -26 71 -72 71zM281 428c-91 0 -119 -107 -119 -189c0 -125 52 -189 120 -189s120 64 120 189c0 120 -48 189 -121 189z" />
    <glyph glyph-name="germandbls" unicode="&#xdf;" horiz-adv-x="667" 
d="M65 485c0 144 87 263 266 263c111 0 245 -61 245 -204c0 -117 -87 -135 -200 -135v-2c149 -5 250 -63 250 -211c0 -143 -113 -212 -225 -212c-106 0 -175 43 -175 140c0 55 26 115 81 115c21 0 36 -8 36 -29c0 -31 -43 -31 -43 -82s39 -72 85 -72c80 0 111 69 111 148
c0 155 -106 159 -182 161c-42 1 -74 3 -74 39c0 46 38 44 82 45c59 1 128 2 128 104c0 73 -40 119 -118 119c-71 0 -137 -26 -137 -182v-390c0 -55 21 -36 21 -69c0 -26 -18 -31 -54 -31h-131c-21 0 -30 12 -30 33c0 47 64 28 64 69v383z" />
    <glyph glyph-name="onesuperior" unicode="&#xb9;" horiz-adv-x="384" 
d="M47 688c0 10 12 17 33 19c61 5 113 46 138 46c17 0 26 -7 26 -31v-337c0 -44 20 -48 42 -49c19 -1 40 -2 40 -20c0 -12 -10 -18 -28 -18h-208c-30 0 -30 13 -30 18c0 14 20 19 42 20c33 2 46 7 46 47v247c0 36 -10 41 -45 41h-25c-15 0 -31 -1 -31 17z" />
    <glyph glyph-name="logicalnot" unicode="&#xac;" horiz-adv-x="600" 
d="M61 364h478v-250h-90v160h-388v90z" />
    <glyph glyph-name="mu" unicode="&#xb5;" horiz-adv-x="570" 
d="M16 438c0 32 119 50 135 50c15 0 41 -4 41 -70v-246c0 -92 29 -108 80 -108c63 0 112 43 112 90v209c0 67 -46 38 -46 75c0 32 119 50 135 50c15 0 41 -4 41 -70v-323c0 -52 51 -40 51 -68c0 -18 -12 -27 -35 -27h-81c-48 0 -51 21 -57 63c-45 -47 -105 -73 -166 -73
c-16 0 -28 2 -34 3v-129c0 -50 -24 -60 -65 -60c-39 0 -65 9 -65 60v499c0 67 -46 38 -46 75z" />
    <glyph glyph-name="trademark" unicode="&#x2122;" horiz-adv-x="990" 
d="M12 732h370v-92h-28c-16 58 -26 65 -110 62v-333c0 -24 10 -26 50 -29v-30h-194v30c40 3 50 5 50 29v333c-84 3 -94 -4 -110 -62h-28v92zM410 732h143l147 -306l157 306h121v-30c-35 0 -52 -13 -52 -45v-288c0 -24 10 -26 48 -29v-30h-190v30c38 3 48 5 48 29v247h-2
l-152 -308h-12l-146 308h-2v-212c0 -51 11 -61 50 -64v-30h-138v30c37 3 50 12 50 64v239c0 20 -26 58 -70 59v30z" />
    <glyph glyph-name="Eth" unicode="&#xd0;" horiz-adv-x="780" 
d="M67 732h217c263 0 469 -98 469 -365c0 -250 -179 -367 -399 -367h-287c-28 0 -43 9 -43 30c0 43 56 19 56 68v266c-32 4 -78 -15 -78 34s46 30 78 34v202c0 49 -56 25 -56 68c0 21 14 30 43 30zM228 579v-147h180c9 0 26 -6 26 -34s-17 -34 -26 -34h-180v-211
c0 -79 15 -85 81 -85c186 0 284 128 284 298c0 172 -93 298 -286 298c-66 0 -79 -10 -79 -85z" />
    <glyph glyph-name="onehalf" unicode="&#xbd;" horiz-adv-x="960" 
d="M47 688c0 9 9 17 33 19c67 6 113 46 138 46c17 0 26 -7 26 -31v-341c0 -42 20 -44 42 -45c19 -1 40 0 40 -20c0 -12 -10 -18 -28 -18h-210c-24 0 -28 10 -28 18c0 15 21 19 43 20c29 1 45 6 45 45v249c0 36 -10 41 -45 41h-17c-18 0 -39 -2 -39 17zM683 748
c12 0 33 1 33 -8c0 -5 0 -5 -4 -10l-435 -741c-3 -4 -6 -5 -29 -5c-12 0 -33 -1 -33 8c0 5 -2 0 34 61l402 685c5 9 4 10 32 10zM563 331c0 63 73 119 174 119c106 0 158 -53 158 -115c0 -108 -158 -168 -232 -271h134c51 0 64 39 89 39c7 0 15 -7 15 -15
c0 -11 -13 -27 -20 -62c-3 -15 -8 -26 -30 -26h-274c-22 0 -25 9 -25 19c0 87 243 217 243 325c0 40 -31 68 -73 68c-35 0 -83 -27 -83 -62c0 -21 18 -26 18 -43c0 -20 -24 -28 -42 -28c-32 0 -52 21 -52 52z" />
    <glyph glyph-name="plusminus" unicode="&#xb1;" horiz-adv-x="600" 
d="M254 478h90v-133h195v-90h-195v-133h-90v133h-193v90h193v133zM61 90h478v-90h-478v90z" />
    <glyph glyph-name="Thorn" unicode="&#xde;" horiz-adv-x="650" 
d="M68 732h174c28 0 43 -9 43 -30c0 -43 -56 -17 -56 -70v-28h98c129 0 320 -29 320 -192c0 -168 -173 -255 -418 -257v-55c0 -53 56 -26 56 -70c0 -21 -14 -30 -43 -30h-174c-29 0 -44 9 -44 30c0 43 57 19 57 68v536c0 49 -57 25 -57 68c0 21 15 30 44 30zM229 475v-257
c142 0 258 73 258 184c0 72 -39 134 -166 134c-54 0 -92 -4 -92 -61z" />
    <glyph glyph-name="onequarter" unicode="&#xbc;" horiz-adv-x="960" 
d="M47 688c0 11 13 17 33 19c64 7 117 46 138 46c17 0 26 -7 26 -31v-337c0 -44 20 -48 42 -49c19 -1 40 -1 40 -20c0 -12 -10 -18 -28 -18h-208c-30 0 -30 13 -30 18c0 12 21 19 42 20c29 2 46 5 46 47v247c0 36 -10 41 -45 41h-17c-20 0 -39 -1 -39 17zM709 748
c12 0 33 1 33 -8c0 -5 0 -5 -4 -10l-435 -741c-3 -4 -6 -5 -29 -5c-12 0 -33 -1 -33 8c0 5 -2 0 34 61l402 684c5 9 4 11 32 11zM529 136c0 55 109 241 205 306c16 11 32 12 47 12c34 0 43 -9 43 -42v-257c59 -1 80 7 80 -19c0 -29 -26 -19 -80 -21v-57c0 -46 42 -13 42 -42
c0 -7 -1 -16 -28 -16h-125c-27 0 -28 9 -28 16c0 28 43 -3 43 42v57h-167c-31 0 -32 12 -32 21zM728 155v227c-63 -69 -114 -144 -145 -227h145z" />
    <glyph glyph-name="divide" unicode="&#xf7;" horiz-adv-x="600" 
d="M233 436c0 37 30 67 67 67s67 -30 67 -67s-30 -67 -67 -67s-67 30 -67 67zM61 284h478v-90h-478v90zM233 42c0 37 30 67 67 67s67 -30 67 -67s-30 -67 -67 -67s-67 30 -67 67z" />
    <glyph glyph-name="brokenbar" unicode="&#xa6;" horiz-adv-x="222" 
d="M66 762h90v-286h-90v286zM66 286h90v-286h-90v286z" />
    <glyph glyph-name="degree" unicode="&#xb0;" horiz-adv-x="400" 
d="M57 605c0 80 63 143 143 143s143 -63 143 -143s-63 -143 -143 -143s-143 63 -143 143zM199 698c-45 0 -88 -34 -88 -93c0 -56 39 -93 89 -93c53 0 89 41 89 93c0 50 -34 93 -90 93z" />
    <glyph glyph-name="thorn" unicode="&#xfe;" horiz-adv-x="610" 
d="M22 704c0 26 124 58 148 58c20 0 41 -7 41 -54v-284c43 40 87 64 153 64c139 0 222 -117 222 -246c0 -139 -95 -252 -240 -252c-40 0 -109 8 -109 46c0 12 8 26 25 26c8 0 37 -4 61 -4c96 0 125 108 125 181c0 76 -29 185 -124 185c-87 0 -113 -89 -113 -143v-371
c0 -61 57 -32 57 -72c0 -23 -35 -26 -45 -26h-154c-20 0 -35 8 -35 27c0 36 47 10 47 70v712c0 74 -59 38 -59 83z" />
    <glyph glyph-name="threequarters" unicode="&#xbe;" horiz-adv-x="960" 
d="M33 653c0 52 68 95 157 95c73 0 150 -36 150 -111c0 -55 -46 -86 -99 -98v-2c61 -9 121 -51 121 -114c0 -93 -93 -136 -186 -136c-61 0 -165 25 -165 94c0 25 15 38 43 38c35 0 34 -13 37 -30c5 -28 12 -66 76 -66s95 41 95 97c0 90 -83 93 -129 93c-17 0 -31 2 -31 19
c0 15 13 18 39 19c36 2 103 6 103 89c0 43 -28 72 -73 72c-27 0 -56 -13 -56 -41c0 -10 3 -18 3 -28c0 -14 -10 -26 -38 -26s-47 11 -47 36zM709 748c12 0 33 1 33 -8c0 -5 0 -5 -4 -10l-435 -741c-3 -4 -6 -5 -29 -5c-12 0 -33 -1 -33 8c0 5 -2 0 34 61l402 684
c5 9 4 11 32 11zM529 136c0 56 109 240 205 306c16 11 33 12 47 12c34 0 43 -9 43 -42v-257c59 -1 80 7 80 -19c0 -29 -26 -19 -80 -21v-57c0 -46 42 -14 42 -42c0 -7 -1 -16 -28 -16h-125c-27 0 -28 9 -28 16c0 27 43 -3 43 42v57h-167c-31 0 -32 12 -32 21zM728 155v227
c-63 -69 -114 -144 -145 -227h145z" />
    <glyph glyph-name="twosuperior" unicode="&#xb2;" horiz-adv-x="384" 
d="M31 629c0 63 73 119 174 119c106 0 158 -53 158 -115c0 -108 -158 -168 -232 -271h134c51 0 64 39 89 39c7 0 15 -7 15 -15c0 -7 -15 -38 -20 -62c-3 -16 -10 -26 -30 -26h-274c-22 0 -25 9 -25 19c0 87 243 217 243 325c0 40 -31 68 -73 68c-35 0 -83 -27 -83 -62
c0 -21 18 -26 18 -43c0 -20 -24 -28 -42 -28c-32 0 -52 21 -52 52z" />
    <glyph glyph-name="registered" unicode="&#xae;" horiz-adv-x="800" 
d="M28 366c0 213 162 382 372 382s372 -169 372 -382s-162 -382 -372 -382s-372 169 -372 382zM399 686c-164 0 -291 -142 -291 -320c0 -174 123 -320 292 -320s292 146 292 320c0 170 -119 320 -293 320zM222 576h206c75 0 122 -42 122 -103c0 -56 -36 -100 -79 -116
l57 -83c9 -11 41 -63 74 -92v-12h-85c-34 0 -70 97 -124 174h-35v-120c0 -27 10 -28 49 -32h1v-22h-186v22c40 5 48 5 48 43v275c0 39 -8 40 -47 44h-1v22zM358 544v-168c66 -8 102 18 102 89c0 79 -46 81 -102 79z" />
    <glyph glyph-name="minus" unicode="&#x2212;" horiz-adv-x="600" 
d="M61 284h478v-90h-478v90z" />
    <glyph glyph-name="eth" unicode="&#xf0;" horiz-adv-x="590" 
d="M147 739c0 15 13 23 24 23c28 0 131 -58 152 -76l92 52c9 5 14 8 26 8s26 -10 26 -26c0 -7 -2 -13 -12 -19l-88 -51c116 -105 199 -223 199 -392c0 -167 -122 -268 -271 -268s-271 101 -271 249s122 249 271 249c31 0 61 -5 90 -14c-21 54 -51 103 -85 139l-103 -59
c-5 -3 -10 -5 -16 -5c-9 0 -24 14 -24 30c0 10 0 10 7 16l98 56c-35 32 -71 55 -111 74c-2 1 -4 4 -4 14zM294 428c-96 0 -132 -99 -132 -189c0 -125 59 -189 133 -189s133 64 133 189c0 121 -56 189 -134 189z" />
    <glyph glyph-name="multiply" unicode="&#xd7;" horiz-adv-x="600" 
d="M61 412l67 66l172 -173l172 173l67 -66l-173 -173l173 -173l-67 -66l-172 173l-172 -173l-67 66l173 173z" />
    <glyph glyph-name="threesuperior" unicode="&#xb3;" horiz-adv-x="384" 
d="M33 653c0 52 68 95 157 95c73 0 150 -36 150 -111c0 -55 -46 -86 -99 -98v-2c61 -9 121 -51 121 -114c0 -93 -93 -136 -186 -136c-61 0 -165 25 -165 94c0 25 15 38 43 38c35 0 34 -14 37 -30c5 -28 12 -66 76 -66s95 41 95 97c0 95 -83 90 -129 93c-17 1 -31 1 -31 19
s18 17 39 19c42 4 103 7 103 89c0 43 -28 72 -73 72c-27 0 -56 -13 -56 -41c0 -10 3 -18 3 -28c0 -14 -10 -26 -38 -26s-47 11 -47 36z" />
    <glyph glyph-name="copyright" unicode="&#xa9;" horiz-adv-x="800" 
d="M28 366c0 213 162 382 372 382s372 -169 372 -382s-162 -382 -372 -382s-372 169 -372 382zM399 686c-164 0 -291 -142 -291 -320c0 -174 123 -320 292 -320s292 146 292 320c0 170 -119 320 -293 320zM188 376c0 97 72 218 241 218c70 0 136 -27 136 -44v-81h-26
c-14 59 -50 91 -111 91c-88 0 -134 -76 -134 -178c0 -113 39 -194 138 -194c65 0 99 38 125 96h25l-17 -91c-11 -21 -102 -39 -144 -39c-137 0 -233 72 -233 222z" />
    <glyph glyph-name="Ccedilla" unicode="&#xc7;" horiz-adv-x="740" 
d="M32 348c0 228 190 400 410 400c142 0 249 -74 254 -96c4 -18 10 -66 10 -107c0 -27 -16 -35 -30 -35c-18 0 -26 20 -37 48c-21 53 -82 122 -200 122c-170 0 -247 -139 -247 -312c0 -165 79 -306 252 -306c151 0 201 121 240 121c17 0 31 -13 31 -25
c0 -55 -109 -157 -263 -172l-19 -42c71 3 108 -26 108 -79c0 -65 -56 -85 -119 -85c-65 0 -93 30 -93 50c0 10 7 22 20 22c30 0 42 -20 67 -20c20 0 45 14 45 36c0 16 -12 28 -36 28c-25 0 -40 -5 -48 -5c-6 0 -11 4 -11 11c0 18 7 27 32 82c-199 7 -366 152 -366 364z" />
    <glyph glyph-name="ccedilla" unicode="&#xe7;" horiz-adv-x="500" 
d="M24 232c0 149 112 256 260 256c94 0 185 -48 185 -104c0 -29 -25 -48 -63 -48c-59 0 -46 98 -126 98c-69 0 -118 -82 -118 -202c0 -107 65 -170 139 -170c96 0 122 77 156 77c13 0 25 -10 25 -24c0 -38 -72 -107 -171 -122l-21 -49c71 3 108 -26 108 -79
c0 -65 -56 -85 -119 -85c-65 0 -93 30 -93 50c0 10 7 22 20 22c30 0 42 -20 67 -20c20 0 45 14 45 36c0 16 -12 28 -36 28c-25 0 -40 -5 -48 -5c-6 0 -11 4 -11 11c0 10 4 22 5 23l30 65c-134 7 -234 102 -234 242z" />
    <glyph glyph-name="Delta" unicode="&#x2206;" horiz-adv-x="736" 
d="M332 732l61 15l303 -710v-37h-657v37zM319 572l-206 -507h416z" />
    <glyph glyph-name="Omega" unicode="&#x2126;" horiz-adv-x="837" 
d="M78 412c0 205 147 335 342 335c200 0 337 -126 337 -327c0 -142 -103 -238 -200 -319h124c47 0 59 18 81 78l37 -1l-31 -178h-286l-10 25c43 88 132 233 132 383c0 192 -69 298 -188 298c-114 0 -183 -87 -183 -301c0 -137 66 -262 128 -380l-9 -25h-286l-28 178l35 1
c21 -57 36 -78 86 -78h113c-92 67 -194 156 -194 311z" />
    <glyph glyph-name="pi" unicode="&#x3c0;" horiz-adv-x="658" 
d="M525 482c35 0 52 3 73 36l31 -9c-6 -45 -27 -104 -43 -123c-20 -7 -54 -7 -73 -7v-1c-3 -31 -5 -80 -5 -130v-88c0 -37 6 -93 46 -93c21 0 33 10 51 25l14 -29c-27 -44 -80 -77 -131 -77c-91 0 -113 68 -113 148c0 97 7 179 11 248c-50 0 -121 2 -151 2
c1 -300 -73 -377 -73 -378c-23 -10 -52 -18 -76 -20l-8 24c78 101 105 266 105 376c-63 0 -89 -8 -144 -44l-18 32c54 73 97 111 203 111c5 0 238 -3 301 -3z" />
    <glyph glyph-name="Euro" unicode="&#x20ac;" 
d="M129 485c38 161 145 263 295 263c78 0 125 -24 158 -45c11 -7 25 -20 30 -36c4 -13 8 -67 8 -105c0 -25 -9 -37 -28 -37c-25 0 -26 23 -36 48c-20 48 -53 115 -131 115c-87 0 -132 -82 -149 -203h174c23 0 34 -12 34 -35c0 -24 -10 -35 -34 -35h-180
c-1 -14 -2 -34 -2 -48c0 -7 0 -13 1 -20h181c23 0 34 -12 34 -35c0 -24 -10 -35 -34 -35h-178c9 -96 37 -233 158 -233c119 0 132 113 174 113c15 0 26 -11 26 -25c0 -32 -59 -148 -204 -148c-160 0 -282 105 -307 293c-52 2 -88 -11 -88 35s39 33 83 35c0 24 1 40 4 68
c-51 2 -87 -11 -87 35c0 23 11 35 34 35h64z" />
    <glyph glyph-name="estimated" unicode="&#x212e;" horiz-adv-x="920" 
d="M36 365c0 211 189 381 423 381c236 0 429 -173 424 -391h-687c-2 0 -5 -2 -5 -4v-209c0 -6 3 -16 9 -23c65 -67 156 -113 260 -113c107 0 204 48 273 126h61c-77 -90 -201 -147 -335 -147c-234 0 -423 170 -423 380zM191 587v-205c2 -6 2 -6 5 -7h528c2 1 2 1 3 6v211
c0 30 -118 132 -268 132c-148 0 -268 -105 -268 -137z" />
    <glyph glyph-name="partialdiff" unicode="&#x2202;" horiz-adv-x="621" 
d="M92 775c52 31 105 44 165 44c217 0 308 -218 308 -406c0 -227 -103 -427 -303 -427c-130 0 -215 83 -215 217c0 152 112 261 254 261c56 0 112 -26 142 -68c5 35 12 94 12 138c0 181 -92 223 -155 223c-39 0 -94 -15 -164 -73c-18 -1 -47 44 -47 76c0 6 1 10 3 15z
M333 412c-47 0 -84 -25 -106 -60c-40 -64 -48 -163 -48 -212c0 -81 39 -114 86 -114c79 0 145 143 168 319c-19 37 -57 67 -100 67z" />
    <glyph glyph-name="product" unicode="&#x220f;" horiz-adv-x="805" 
d="M28 745h745v-35c-89 -7 -103 -14 -103 -87v-582c0 -82 16 -87 101 -95h1v-36h-326v36h1c76 7 87 10 87 93v626c0 30 -9 35 -36 35h-194c-28 0 -34 -5 -34 -31v-635c0 -73 8 -81 79 -88h1v-36h-318v36c85 7 101 13 101 95v581c0 75 -15 81 -105 88v35z" />
    <glyph glyph-name="summation" unicode="&#x2211;" 
d="M35 745h525c0 -1 0 -14 14 -192l-36 -8c-40 148 -55 157 -153 157h-185l189 -330l-248 -357h284c92 0 103 13 152 131l37 -10l-53 -233h-532v35l245 346l-239 425v36z" />
    <glyph glyph-name="uni2219" unicode="&#x2219;" horiz-adv-x="320" 
d="M89 239c0 39 32 71 71 71s71 -32 71 -71s-32 -71 -71 -71s-71 32 -71 71z" />
    <glyph glyph-name="radical" unicode="&#x221a;" horiz-adv-x="626" 
d="M410 56l151 890l54 -12l-194 -1103l-32 -14l-239 581l-98 -45l-14 43l200 91l170 -431h2z" />
    <glyph glyph-name="infinity" unicode="&#x221e;" horiz-adv-x="835" 
d="M50 298c0 109 78 185 180 185c80 0 138 -47 193 -118c47 53 99 118 191 118s170 -67 170 -179c0 -120 -87 -187 -174 -187c-61 0 -121 27 -192 121c-53 -65 -109 -121 -197 -121c-90 0 -171 73 -171 181zM225 408c-53 0 -96 -42 -96 -111c0 -55 42 -104 101 -104
s102 50 146 102c-46 63 -83 113 -151 113zM607 408c-64 0 -111 -66 -145 -106c63 -80 98 -109 151 -109c59 0 92 58 92 105c0 58 -34 110 -98 110z" />
    <glyph glyph-name="integral" unicode="&#x222b;" horiz-adv-x="444" 
d="M155 506c0 329 115 388 193 388c39 0 81 -23 81 -61c0 -40 -31 -62 -62 -62c-43 0 -38 67 -63 67s-33 -45 -33 -111l1 -53l21 -399c1 -28 2 -57 2 -88c0 -317 -100 -412 -198 -412c-46 0 -81 29 -81 63c0 38 39 65 72 65c36 0 34 -72 58 -72c33 0 35 81 35 115l-1 49
l-23 424c-2 30 -2 58 -2 87z" />
    <glyph glyph-name="approxequal" unicode="&#x2248;" horiz-adv-x="603" 
d="M509 482l52 -49c-32 -56 -84 -110 -151 -110c-97 0 -141 78 -215 78c-47 0 -76 -36 -105 -76v-1l-52 49c31 60 94 108 163 108c96 0 137 -76 208 -76c41 0 68 29 100 77zM38 172c31 60 95 109 163 109c97 0 138 -77 207 -77c43 0 68 29 101 77l52 -49
c-34 -59 -85 -109 -152 -109c-95 0 -140 77 -214 77c-48 0 -76 -37 -105 -77z" />
    <glyph glyph-name="notequal" unicode="&#x2260;" horiz-adv-x="603" 
d="M325 451l54 120l65 -27l-41 -93h147v-81h-180l-63 -143h243v-81h-276l-54 -123l-65 28l43 95h-146v81h178l63 143h-241v81h273z" />
    <glyph glyph-name="lessequal" unicode="&#x2264;" horiz-adv-x="603" 
d="M548 672v-94l-408 -185v-2l408 -186v-94l-491 237v88zM53 72h498v-83h-498v83z" />
    <glyph glyph-name="greaterequal" unicode="&#x2265;" horiz-adv-x="603" 
d="M58 578v94l491 -237v-87l-491 -237v94l407 186v2zM54 72h494v-83h-494v83z" />
    <glyph glyph-name="lozenge" unicode="&#x25ca;" horiz-adv-x="641" 
d="M273 792h97l220 -437l-221 -433h-99l-219 433zM319 708l-175 -352l175 -354h4l173 353l-173 353h-4z" />
    <glyph glyph-name="uni02C9" unicode="&#x2c9;" horiz-adv-x="259" 
d="M20 650h219c25 0 36 -11 36 -37s-11 -37 -36 -37h-219c-25 0 -36 11 -36 37s11 37 36 37z" />
    <glyph glyph-name="uni00AD" unicode="&#xad;" horiz-adv-x="320" 
d="M47 287h226c24 0 27 -26 27 -48s-3 -48 -27 -48h-226c-24 0 -27 26 -27 48s3 48 27 48z" />
    <glyph glyph-name="uni03A9" unicode="&#x3a9;" horiz-adv-x="837" 
d="M78 412c0 205 147 335 342 335c200 0 337 -126 337 -327c0 -142 -103 -238 -200 -319h124c47 0 59 18 81 78l37 -1l-31 -178h-286l-10 25c43 88 132 233 132 383c0 192 -69 298 -188 298c-114 0 -183 -87 -183 -301c0 -137 66 -262 128 -380l-9 -25h-286l-28 178l35 1
c21 -57 36 -78 86 -78h113c-92 67 -194 156 -194 311z" />
    <glyph glyph-name="uni00A0" unicode="&#xa0;" horiz-adv-x="320" 
 />
    <glyph glyph-name="afii61289" unicode="&#x2113;" horiz-adv-x="494" 
d="M100 464c0 172 23 215 60 262c35 45 80 66 123 66c79 0 116 -70 116 -150c0 -125 -66 -212 -170 -308v-93c0 -126 28 -176 96 -176c44 0 85 28 125 84l25 -24c-50 -92 -119 -139 -207 -139c-139 0 -167 84 -167 198v76l-65 -42h-1l-15 33l80 57v156zM229 531v-138
c60 70 94 153 94 246c0 53 -11 113 -47 113c-41 0 -47 -69 -47 -221z" />
    <glyph glyph-name="uni03BC" unicode="&#x3bc;" horiz-adv-x="570" 
d="M16 438c0 32 119 50 135 50c15 0 41 -4 41 -70v-246c0 -92 29 -108 80 -108c63 0 112 43 112 90v209c0 67 -46 38 -46 75c0 32 119 50 135 50c15 0 41 -4 41 -70v-323c0 -52 51 -40 51 -68c0 -18 -12 -27 -35 -27h-81c-48 0 -51 21 -57 63c-45 -47 -105 -73 -166 -73
c-16 0 -28 2 -34 3v-129c0 -50 -24 -60 -65 -60c-39 0 -65 9 -65 60v499c0 67 -46 38 -46 75z" />
    <glyph glyph-name="uni2215" unicode="&#x2215;" horiz-adv-x="167" 
d="M301 748c12 0 33 1 33 -8c0 -5 0 -5 -4 -10l-435 -741c-3 -4 -6 -5 -29 -5c-12 0 -33 -1 -33 8c0 5 2 7 34 61l402 685c5 9 4 10 32 10z" />
    <glyph glyph-name="Aacute" unicode="&#xc1;" horiz-adv-x="730" 
d="M-3 28c0 44 45 19 61 72c78 258 182 495 250 612c15 26 26 36 63 36c14 0 40 2 51 -18c118 -211 204 -483 261 -638c11 -31 51 -19 51 -62c0 -20 -11 -30 -32 -30h-192c-19 0 -27 9 -27 28c0 43 46 30 46 56c0 20 -19 66 -49 162h-294c-15 -38 -44 -138 -44 -160
c0 -29 51 -16 51 -58c0 -20 -10 -28 -31 -28h-139c-11 0 -26 6 -26 28zM330 618l-120 -300h243zM365 916c26 43 36 39 83 39c25 0 58 6 58 -27c0 -21 -17 -30 -32 -41l-120 -95c-10 -8 -28 -21 -38 -21s-19 7 -19 18s12 29 15 32z" />
    <glyph glyph-name="Acircumflex" unicode="&#xc2;" horiz-adv-x="730" 
d="M-3 28c0 44 45 19 61 72c78 258 182 495 250 612c15 26 26 36 63 36c14 0 40 2 51 -18c118 -211 204 -483 261 -638c11 -31 51 -19 51 -62c0 -20 -11 -30 -32 -30h-192c-19 0 -27 9 -27 28c0 43 46 30 46 56c0 20 -19 66 -49 162h-294c-15 -38 -44 -138 -44 -160
c0 -29 51 -16 51 -58c0 -20 -10 -28 -31 -28h-139c-11 0 -26 6 -26 28zM330 618l-120 -300h243zM298 919c10 10 34 40 57 40c14 0 30 -11 61 -42l91 -93c15 -15 22 -24 22 -36c0 -7 -9 -17 -18 -17c-1 0 -10 -1 -41 18l-114 72l-113 -71c-33 -21 -41 -19 -42 -19
c-9 0 -18 10 -18 17c0 13 9 22 21 34z" />
    <glyph glyph-name="Adieresis" unicode="&#xc4;" horiz-adv-x="730" 
d="M-3 28c0 44 45 19 61 72c78 258 182 495 250 612c15 26 26 36 63 36c14 0 40 2 51 -18c118 -211 204 -483 261 -638c11 -31 51 -19 51 -62c0 -20 -11 -30 -32 -30h-192c-19 0 -27 9 -27 28c0 43 46 30 46 56c0 20 -19 66 -49 162h-294c-15 -38 -44 -138 -44 -160
c0 -29 51 -16 51 -58c0 -20 -10 -28 -31 -28h-139c-11 0 -26 6 -26 28zM330 618l-120 -300h243zM175 850c0 45 39 66 77 66s77 -21 77 -66s-39 -66 -77 -66s-77 21 -77 66zM384 850c0 45 39 66 77 66s77 -21 77 -66s-39 -66 -77 -66s-77 21 -77 66z" />
    <glyph glyph-name="Agrave" unicode="&#xc0;" horiz-adv-x="730" 
d="M-3 28c0 44 45 19 61 72c78 258 182 495 250 612c15 26 26 36 63 36c14 0 40 2 51 -18c118 -211 204 -483 261 -638c11 -31 51 -19 51 -62c0 -20 -11 -30 -32 -30h-192c-19 0 -27 9 -27 28c0 43 46 30 46 56c0 20 -19 66 -49 162h-294c-15 -38 -44 -138 -44 -160
c0 -29 51 -16 51 -58c0 -20 -10 -28 -31 -28h-139c-11 0 -26 6 -26 28zM330 618l-120 -300h243zM207 928c0 33 33 27 58 27c47 0 57 4 82 -39l54 -94c3 -4 15 -22 15 -33s-8 -18 -19 -18c-9 0 -28 13 -37 20l-121 96c-15 11 -32 20 -32 41z" />
    <glyph glyph-name="Aring" unicode="&#xc5;" horiz-adv-x="730" 
d="M-3 28c0 44 45 19 61 72c78 258 182 495 250 612c15 26 26 36 63 36c14 0 40 2 51 -18c118 -211 204 -483 261 -638c11 -31 51 -19 51 -62c0 -20 -11 -30 -32 -30h-192c-19 0 -27 9 -27 28c0 43 46 30 46 56c0 20 -19 66 -49 162h-294c-15 -38 -44 -138 -44 -160
c0 -29 51 -16 51 -58c0 -20 -10 -28 -31 -28h-139c-11 0 -26 6 -26 28zM330 618l-120 -300h243zM253 862c0 57 48 104 104 104s104 -47 104 -104s-47 -104 -104 -104s-104 47 -104 104zM357 922c-32 0 -60 -26 -60 -60c0 -33 27 -60 60 -60s60 27 60 60c0 32 -26 60 -60 60z
" />
    <glyph glyph-name="Atilde" unicode="&#xc3;" horiz-adv-x="730" 
d="M-3 28c0 44 45 19 61 72c78 258 182 495 250 612c15 26 26 36 63 36c14 0 40 2 51 -18c118 -211 204 -483 261 -638c11 -31 51 -19 51 -62c0 -20 -11 -30 -32 -30h-192c-19 0 -27 9 -27 28c0 43 46 30 46 56c0 20 -19 66 -49 162h-294c-15 -38 -44 -138 -44 -160
c0 -29 51 -16 51 -58c0 -20 -10 -28 -31 -28h-139c-11 0 -26 6 -26 28zM330 618l-120 -300h243zM179 807c0 55 67 107 122 107c64 0 104 -54 148 -54c38 0 50 44 68 44c9 0 17 -6 17 -20c0 -42 -58 -98 -126 -98c-64 0 -104 54 -148 54c-38 0 -42 -53 -65 -53
c-10 0 -16 7 -16 20z" />
    <glyph glyph-name="Eacute" unicode="&#xc9;" horiz-adv-x="630" 
d="M67 732h465c45 0 56 -20 56 -103c0 -19 -2 -31 -17 -31c-23 0 -23 19 -69 45c-27 15 -56 21 -154 21c-103 0 -120 -3 -120 -64v-170h177c54 0 58 34 84 34c25 0 27 -28 27 -68c0 -52 -2 -70 -26 -70c-30 0 -22 36 -86 36h-176v-189c0 -104 15 -105 67 -105
c186 0 232 21 251 46c15 19 25 37 47 37c19 0 29 -12 29 -34c0 -76 -14 -117 -70 -117h-485c-28 0 -43 9 -43 30c0 43 56 19 56 68v536c0 49 -56 25 -56 68c0 21 14 30 43 30zM324 916c26 43 36 39 83 39c25 0 58 6 58 -27c0 -21 -17 -30 -32 -41l-120 -95
c-10 -8 -28 -21 -38 -21s-19 7 -19 18s12 29 15 32z" />
    <glyph glyph-name="Ecircumflex" unicode="&#xca;" horiz-adv-x="630" 
d="M67 732h465c45 0 56 -20 56 -103c0 -19 -2 -31 -17 -31c-23 0 -23 19 -69 45c-27 15 -56 21 -154 21c-103 0 -120 -3 -120 -64v-170h177c54 0 58 34 84 34c25 0 27 -28 27 -68c0 -52 -2 -70 -26 -70c-30 0 -22 36 -86 36h-176v-189c0 -104 15 -105 67 -105
c186 0 232 21 251 46c15 19 25 37 47 37c19 0 29 -12 29 -34c0 -76 -14 -117 -70 -117h-485c-28 0 -43 9 -43 30c0 43 56 19 56 68v536c0 49 -56 25 -56 68c0 21 14 30 43 30zM257 919c10 10 34 40 57 40c14 0 30 -11 61 -42l91 -93c15 -15 22 -24 22 -36
c0 -7 -9 -17 -18 -17c-1 0 -10 -1 -41 18l-114 72l-113 -71c-33 -21 -41 -19 -42 -19c-9 0 -18 10 -18 17c0 13 9 22 21 34z" />
    <glyph glyph-name="Edieresis" unicode="&#xcb;" horiz-adv-x="630" 
d="M67 732h465c45 0 56 -20 56 -103c0 -19 -2 -31 -17 -31c-23 0 -23 19 -69 45c-27 15 -56 21 -154 21c-103 0 -120 -3 -120 -64v-170h177c54 0 58 34 84 34c25 0 27 -28 27 -68c0 -52 -2 -70 -26 -70c-30 0 -22 36 -86 36h-176v-189c0 -104 15 -105 67 -105
c186 0 232 21 251 46c15 19 25 37 47 37c19 0 29 -12 29 -34c0 -76 -14 -117 -70 -117h-485c-28 0 -43 9 -43 30c0 43 56 19 56 68v536c0 49 -56 25 -56 68c0 21 14 30 43 30zM134 850c0 45 39 66 77 66s77 -21 77 -66s-39 -66 -77 -66s-77 21 -77 66zM343 850
c0 45 39 66 77 66s77 -21 77 -66s-39 -66 -77 -66s-77 21 -77 66z" />
    <glyph glyph-name="Egrave" unicode="&#xc8;" horiz-adv-x="630" 
d="M67 732h465c45 0 56 -20 56 -103c0 -19 -2 -31 -17 -31c-23 0 -23 19 -69 45c-27 15 -56 21 -154 21c-103 0 -120 -3 -120 -64v-170h177c54 0 58 34 84 34c25 0 27 -28 27 -68c0 -52 -2 -70 -26 -70c-30 0 -22 36 -86 36h-176v-189c0 -104 15 -105 67 -105
c186 0 232 21 251 46c15 19 25 37 47 37c19 0 29 -12 29 -34c0 -76 -14 -117 -70 -117h-485c-28 0 -43 9 -43 30c0 43 56 19 56 68v536c0 49 -56 25 -56 68c0 21 14 30 43 30zM162 928c0 33 33 27 58 27c47 0 57 4 82 -39l54 -94c3 -4 15 -22 15 -33s-8 -18 -19 -18
c-9 0 -28 13 -37 20l-121 96c-15 11 -32 20 -32 41z" />
    <glyph glyph-name="Iacute" unicode="&#xcd;" horiz-adv-x="310" 
d="M68 732h174c28 0 43 -9 43 -30c0 -43 -56 -19 -56 -68v-536c0 -49 56 -25 56 -68c0 -21 -14 -30 -43 -30h-174c-28 0 -43 9 -43 30c0 43 56 19 56 68v536c0 49 -56 25 -56 68c0 21 14 30 43 30zM155 916c26 43 36 39 83 39c25 0 58 6 58 -27c0 -21 -17 -30 -32 -41
l-120 -95c-10 -8 -28 -21 -38 -21s-19 7 -19 18s12 29 15 32z" />
    <glyph glyph-name="Icircumflex" unicode="&#xce;" horiz-adv-x="310" 
d="M68 732h174c28 0 43 -9 43 -30c0 -43 -56 -19 -56 -68v-536c0 -49 56 -25 56 -68c0 -21 -14 -30 -43 -30h-174c-28 0 -43 9 -43 30c0 43 56 19 56 68v536c0 49 -56 25 -56 68c0 21 14 30 43 30zM88 919c10 10 34 40 57 40c14 0 30 -11 61 -42l91 -93
c15 -15 22 -24 22 -36c0 -7 -9 -17 -18 -17c-1 0 -10 -1 -41 18l-114 72l-113 -71c-33 -21 -41 -19 -42 -19c-9 0 -18 10 -18 17c0 13 9 22 21 34z" />
    <glyph glyph-name="Idieresis" unicode="&#xcf;" horiz-adv-x="310" 
d="M68 732h174c28 0 43 -9 43 -30c0 -43 -56 -19 -56 -68v-536c0 -49 56 -25 56 -68c0 -21 -14 -30 -43 -30h-174c-28 0 -43 9 -43 30c0 43 56 19 56 68v536c0 49 -56 25 -56 68c0 21 14 30 43 30zM-35 850c0 45 39 66 77 66s77 -21 77 -66s-39 -66 -77 -66s-77 21 -77 66z
M174 850c0 45 39 66 77 66s77 -21 77 -66s-39 -66 -77 -66s-77 21 -77 66z" />
    <glyph glyph-name="Igrave" unicode="&#xcc;" horiz-adv-x="310" 
d="M68 732h174c28 0 43 -9 43 -30c0 -43 -56 -19 -56 -68v-536c0 -49 56 -25 56 -68c0 -21 -14 -30 -43 -30h-174c-28 0 -43 9 -43 30c0 43 56 19 56 68v536c0 49 -56 25 -56 68c0 21 14 30 43 30zM-3 928c0 33 33 27 58 27c47 0 57 4 82 -39l54 -94c3 -4 15 -22 15 -33
s-8 -18 -19 -18c-9 0 -28 13 -37 20l-121 96c-15 11 -32 20 -32 41z" />
    <glyph glyph-name="Ntilde" unicode="&#xd1;" horiz-adv-x="750" 
d="M56 732h152c48 0 100 -70 388 -490h2v392c0 49 -60 25 -60 68c0 21 14 30 43 30h108c28 0 43 -9 43 -30c0 -43 -60 -19 -60 -68v-588c0 -46 -7 -56 -46 -56c-20 0 -31 1 -42 17l-405 571h-3v-480c0 -49 68 -25 68 -68c0 -21 -14 -30 -43 -30h-130c-44 0 -47 18 -47 30
c0 42 78 19 78 68v536c0 49 -78 26 -78 68c0 18 13 30 32 30zM198 807c0 55 67 107 122 107c64 0 104 -54 148 -54c38 0 50 44 68 44c9 0 17 -6 17 -20c0 -42 -58 -98 -126 -98c-64 0 -104 54 -148 54c-38 0 -42 -53 -65 -53c-10 0 -16 7 -16 20z" />
    <glyph glyph-name="Oacute" unicode="&#xd3;" horiz-adv-x="830" 
d="M32 366c0 216 154 382 383 382s383 -166 383 -382s-154 -382 -383 -382s-383 166 -383 382zM414 680c-126 0 -222 -119 -222 -314c0 -178 83 -314 223 -314s223 136 223 314c0 171 -78 314 -224 314zM424 916c26 43 36 39 83 39c25 0 58 6 58 -27c0 -21 -17 -30 -32 -41
l-120 -95c-10 -8 -28 -21 -38 -21s-19 7 -19 18s12 29 15 32z" />
    <glyph glyph-name="Ocircumflex" unicode="&#xd4;" horiz-adv-x="830" 
d="M32 366c0 216 154 382 383 382s383 -166 383 -382s-154 -382 -383 -382s-383 166 -383 382zM414 680c-126 0 -222 -119 -222 -314c0 -178 83 -314 223 -314s223 136 223 314c0 171 -78 314 -224 314zM357 919c10 10 34 40 57 40c14 0 30 -11 61 -42l91 -93
c15 -15 22 -24 22 -36c0 -7 -9 -17 -18 -17c-1 0 -10 -1 -41 18l-114 72l-113 -71c-33 -21 -41 -19 -42 -19c-9 0 -18 10 -18 17c0 13 9 22 21 34z" />
    <glyph glyph-name="Odieresis" unicode="&#xd6;" horiz-adv-x="830" 
d="M32 366c0 216 154 382 383 382s383 -166 383 -382s-154 -382 -383 -382s-383 166 -383 382zM414 680c-126 0 -222 -119 -222 -314c0 -178 83 -314 223 -314s223 136 223 314c0 171 -78 314 -224 314zM234 850c0 45 39 66 77 66s77 -21 77 -66s-39 -66 -77 -66
s-77 21 -77 66zM443 850c0 45 39 66 77 66s77 -21 77 -66s-39 -66 -77 -66s-77 21 -77 66z" />
    <glyph glyph-name="Ograve" unicode="&#xd2;" horiz-adv-x="830" 
d="M32 366c0 216 154 382 383 382s383 -166 383 -382s-154 -382 -383 -382s-383 166 -383 382zM414 680c-126 0 -222 -119 -222 -314c0 -178 83 -314 223 -314s223 136 223 314c0 171 -78 314 -224 314zM266 928c0 33 33 27 58 27c47 0 57 4 82 -39l54 -94
c3 -4 15 -22 15 -33s-8 -18 -19 -18c-9 0 -28 13 -37 20l-121 96c-15 11 -32 20 -32 41z" />
    <glyph glyph-name="Otilde" unicode="&#xd5;" horiz-adv-x="830" 
d="M32 366c0 216 154 382 383 382s383 -166 383 -382s-154 -382 -383 -382s-383 166 -383 382zM414 680c-126 0 -222 -119 -222 -314c0 -178 83 -314 223 -314s223 136 223 314c0 171 -78 314 -224 314zM238 807c0 55 67 107 122 107c64 0 104 -54 148 -54c38 0 50 44 68 44
c9 0 17 -6 17 -20c0 -42 -58 -98 -126 -98c-64 0 -104 54 -148 54c-38 0 -42 -53 -65 -53c-10 0 -16 7 -16 20z" />
    <glyph glyph-name="Scaron" unicode="&#x160;" 
d="M50 520c0 143 128 228 269 228c130 0 234 -48 243 -74c6 -18 6 -48 6 -83c0 -27 -11 -39 -28 -39c-65 0 -11 128 -219 128c-84 0 -127 -56 -127 -112c0 -193 430 -43 430 -333c0 -144 -125 -251 -307 -251c-164 0 -295 91 -295 179c0 23 16 46 41 46
c82 0 43 -157 249 -157c108 0 174 57 174 134c0 185 -436 60 -436 334zM148 942c0 7 9 17 18 17c10 0 27 -9 37 -16l118 -74l116 73c8 5 28 17 39 17c9 0 18 -10 18 -17c0 -13 -9 -22 -21 -34l-94 -97c-10 -10 -34 -40 -57 -40c-14 0 -30 11 -61 42l-91 93
c-15 15 -22 24 -22 36z" />
    <glyph glyph-name="Uacute" unicode="&#xda;" horiz-adv-x="760" 
d="M68 732h184c16 0 37 -10 37 -30c0 -44 -51 -26 -57 -54c-7 -30 -26 -242 -26 -353c0 -171 65 -243 204 -243c122 0 198 66 198 225c0 75 -9 302 -20 352c-11 49 -69 34 -69 73c0 23 15 30 26 30h155c20 0 31 -9 31 -28c0 -31 -55 -17 -55 -74c0 -26 20 -196 20 -319
c0 -215 -103 -327 -325 -327c-193 0 -315 109 -315 284c0 84 26 331 26 373c0 41 -53 28 -53 61c0 22 17 30 39 30zM389 916c26 43 36 39 83 39c25 0 58 6 58 -27c0 -21 -17 -30 -32 -41l-120 -95c-10 -8 -28 -21 -38 -21s-19 7 -19 18s12 29 15 32z" />
    <glyph glyph-name="Ucircumflex" unicode="&#xdb;" horiz-adv-x="760" 
d="M68 732h184c16 0 37 -10 37 -30c0 -44 -51 -26 -57 -54c-7 -30 -26 -242 -26 -353c0 -171 65 -243 204 -243c122 0 198 66 198 225c0 75 -9 302 -20 352c-11 49 -69 34 -69 73c0 23 15 30 26 30h155c20 0 31 -9 31 -28c0 -31 -55 -17 -55 -74c0 -26 20 -196 20 -319
c0 -215 -103 -327 -325 -327c-193 0 -315 109 -315 284c0 84 26 331 26 373c0 41 -53 28 -53 61c0 22 17 30 39 30zM322 919c10 10 34 40 57 40c14 0 30 -11 61 -42l91 -93c15 -15 22 -24 22 -36c0 -7 -9 -17 -18 -17c-1 0 -10 -1 -41 18l-114 72l-113 -71
c-33 -21 -41 -19 -42 -19c-9 0 -18 10 -18 17c0 13 9 22 21 34z" />
    <glyph glyph-name="Udieresis" unicode="&#xdc;" horiz-adv-x="760" 
d="M68 732h184c16 0 37 -10 37 -30c0 -44 -51 -26 -57 -54c-7 -30 -26 -242 -26 -353c0 -171 65 -243 204 -243c122 0 198 66 198 225c0 75 -9 302 -20 352c-11 49 -69 34 -69 73c0 23 15 30 26 30h155c20 0 31 -9 31 -28c0 -31 -55 -17 -55 -74c0 -26 20 -196 20 -319
c0 -215 -103 -327 -325 -327c-193 0 -315 109 -315 284c0 84 26 331 26 373c0 41 -53 28 -53 61c0 22 17 30 39 30zM199 850c0 45 39 66 77 66s77 -21 77 -66s-39 -66 -77 -66s-77 21 -77 66zM408 850c0 45 39 66 77 66s77 -21 77 -66s-39 -66 -77 -66s-77 21 -77 66z" />
    <glyph glyph-name="Ugrave" unicode="&#xd9;" horiz-adv-x="760" 
d="M68 732h184c16 0 37 -10 37 -30c0 -44 -51 -26 -57 -54c-7 -30 -26 -242 -26 -353c0 -171 65 -243 204 -243c122 0 198 66 198 225c0 75 -9 302 -20 352c-11 49 -69 34 -69 73c0 23 15 30 26 30h155c20 0 31 -9 31 -28c0 -31 -55 -17 -55 -74c0 -26 20 -196 20 -319
c0 -215 -103 -327 -325 -327c-193 0 -315 109 -315 284c0 84 26 331 26 373c0 41 -53 28 -53 61c0 22 17 30 39 30zM231 928c0 33 33 27 58 27c47 0 57 4 82 -39l54 -94c3 -4 15 -22 15 -33s-8 -18 -19 -18c-9 0 -28 13 -37 20l-121 96c-15 11 -32 20 -32 41z" />
    <glyph glyph-name="Yacute" unicode="&#xdd;" horiz-adv-x="720" 
d="M18 732h225c15 0 30 -8 30 -30c0 -36 -46 -29 -46 -46c0 -37 127 -224 178 -290c54 75 167 235 167 276c0 37 -57 24 -57 62c0 20 11 28 33 28h155c16 0 23 -10 23 -27c0 -32 -27 -14 -60 -72c-27 -47 -67 -119 -152 -236l-65 -91v-208c0 -49 56 -25 56 -68
c0 -21 -14 -30 -43 -30h-174c-28 0 -43 9 -43 30c0 43 56 19 56 68v190c-129 143 -181 247 -248 360c-15 25 -60 19 -60 57c0 17 9 27 25 27zM369 916c26 43 36 39 83 39c25 0 58 6 58 -27c0 -21 -17 -30 -32 -41l-120 -95c-10 -8 -28 -21 -38 -21s-19 7 -19 18s12 29 15 32
z" />
    <glyph glyph-name="Ydieresis" unicode="&#x178;" horiz-adv-x="720" 
d="M18 732h225c15 0 30 -8 30 -30c0 -36 -46 -29 -46 -46c0 -37 127 -224 178 -290c54 75 167 235 167 276c0 37 -57 24 -57 62c0 20 11 28 33 28h155c16 0 23 -10 23 -27c0 -32 -27 -14 -60 -72c-27 -47 -67 -119 -152 -236l-65 -91v-208c0 -49 56 -25 56 -68
c0 -21 -14 -30 -43 -30h-174c-28 0 -43 9 -43 30c0 43 56 19 56 68v190c-129 143 -181 247 -248 360c-15 25 -60 19 -60 57c0 17 9 27 25 27zM179 850c0 45 39 66 77 66s77 -21 77 -66s-39 -66 -77 -66s-77 21 -77 66zM388 850c0 45 39 66 77 66s77 -21 77 -66
s-39 -66 -77 -66s-77 21 -77 66z" />
    <glyph glyph-name="Zcaron" unicode="&#x17d;" horiz-adv-x="600" 
d="M103 732h430c17 0 46 -12 46 -34c0 -119 -386 -569 -386 -619c0 -7 6 -11 17 -11h136c173 0 171 89 219 89c18 0 25 -11 25 -28c0 -48 -14 -129 -43 -129h-470c-36 0 -57 15 -57 45c0 104 385 554 385 607c0 16 -24 12 -72 12c-150 0 -173 -10 -213 -52
c-14 -15 -23 -29 -41 -29c-14 0 -29 8 -29 30c0 64 20 119 53 119zM128 942c0 7 9 17 18 17c10 0 27 -9 37 -16l118 -74l116 73c8 5 28 17 39 17c9 0 18 -10 18 -17c0 -13 -9 -22 -21 -34l-94 -97c-10 -10 -34 -40 -57 -40c-14 0 -30 11 -61 42l-91 93c-15 15 -22 24 -22 36
z" />
    <glyph glyph-name="aacute" unicode="&#xe1;" horiz-adv-x="550" 
d="M58 410c0 48 98 78 187 78c178 0 237 -85 237 -173v-220c0 -47 50 -34 50 -65c0 -17 -5 -30 -44 -30h-84c-30 0 -42 13 -42 43v11h-4c-30 -44 -95 -64 -158 -64c-114 0 -176 70 -176 148c0 134 180 188 328 188c0 59 -35 102 -100 102c-79 0 -85 -58 -150 -58
c-26 0 -44 15 -44 40zM352 272c-114 -2 -190 -67 -190 -133c0 -46 38 -93 90 -93c72 0 100 76 100 110v116zM269 679c26 43 36 39 83 39c25 0 58 6 58 -27c0 -21 -17 -30 -32 -41l-120 -95c-10 -8 -28 -21 -38 -21s-19 7 -19 18s12 29 15 32z" />
    <glyph glyph-name="acircumflex" unicode="&#xe2;" horiz-adv-x="550" 
d="M58 410c0 48 98 78 187 78c178 0 237 -85 237 -173v-220c0 -47 50 -34 50 -65c0 -17 -5 -30 -44 -30h-84c-30 0 -42 13 -42 43v11h-4c-30 -44 -95 -64 -158 -64c-114 0 -176 70 -176 148c0 134 180 188 328 188c0 59 -35 102 -100 102c-79 0 -85 -58 -150 -58
c-26 0 -44 15 -44 40zM352 272c-114 -2 -190 -67 -190 -133c0 -46 38 -93 90 -93c72 0 100 76 100 110v116zM208 682c10 10 34 40 57 40c14 0 30 -11 61 -42l91 -93c15 -15 22 -24 22 -36c0 -7 -9 -17 -18 -17c-1 0 -10 -1 -41 18l-114 72l-113 -71c-33 -21 -41 -19 -42 -19
c-9 0 -18 10 -18 17c0 13 9 22 21 34z" />
    <glyph glyph-name="adieresis" unicode="&#xe4;" horiz-adv-x="550" 
d="M58 410c0 48 98 78 187 78c178 0 237 -85 237 -173v-220c0 -47 50 -34 50 -65c0 -17 -5 -30 -44 -30h-84c-30 0 -42 13 -42 43v11h-4c-30 -44 -95 -64 -158 -64c-114 0 -176 70 -176 148c0 134 180 188 328 188c0 59 -35 102 -100 102c-79 0 -85 -58 -150 -58
c-26 0 -44 15 -44 40zM352 272c-114 -2 -190 -67 -190 -133c0 -46 38 -93 90 -93c72 0 100 76 100 110v116zM85 613c0 45 39 66 77 66s77 -21 77 -66s-39 -66 -77 -66s-77 21 -77 66zM294 613c0 45 39 66 77 66s77 -21 77 -66s-39 -66 -77 -66s-77 21 -77 66z" />
    <glyph glyph-name="agrave" unicode="&#xe0;" horiz-adv-x="550" 
d="M58 410c0 48 98 78 187 78c178 0 237 -85 237 -173v-220c0 -47 50 -34 50 -65c0 -17 -5 -30 -44 -30h-84c-30 0 -42 13 -42 43v11h-4c-30 -44 -95 -64 -158 -64c-114 0 -176 70 -176 148c0 134 180 188 328 188c0 59 -35 102 -100 102c-79 0 -85 -58 -150 -58
c-26 0 -44 15 -44 40zM352 272c-114 -2 -190 -67 -190 -133c0 -46 38 -93 90 -93c72 0 100 76 100 110v116zM113 691c0 33 33 27 58 27c47 0 57 4 82 -39l54 -94c3 -4 15 -22 15 -33s-8 -18 -19 -18c-9 0 -28 13 -37 20l-121 96c-15 11 -32 20 -32 41z" />
    <glyph glyph-name="aring" unicode="&#xe5;" horiz-adv-x="550" 
d="M58 410c0 48 98 78 187 78c178 0 237 -85 237 -173v-220c0 -47 50 -34 50 -65c0 -17 -5 -30 -44 -30h-84c-30 0 -42 13 -42 43v11h-4c-30 -44 -95 -64 -158 -64c-114 0 -176 70 -176 148c0 134 180 188 328 188c0 59 -35 102 -100 102c-79 0 -85 -58 -150 -58
c-26 0 -44 15 -44 40zM352 272c-114 -2 -190 -67 -190 -133c0 -46 38 -93 90 -93c72 0 100 76 100 110v116zM163 625c0 57 48 104 104 104s104 -47 104 -104s-47 -104 -104 -104s-104 47 -104 104zM267 685c-32 0 -60 -26 -60 -60c0 -33 27 -60 60 -60s60 27 60 60
c0 32 -26 60 -60 60z" />
    <glyph glyph-name="atilde" unicode="&#xe3;" horiz-adv-x="550" 
d="M58 410c0 48 98 78 187 78c178 0 237 -85 237 -173v-220c0 -47 50 -34 50 -65c0 -17 -5 -30 -44 -30h-84c-30 0 -42 13 -42 43v11h-4c-30 -44 -95 -64 -158 -64c-114 0 -176 70 -176 148c0 134 180 188 328 188c0 59 -35 102 -100 102c-79 0 -85 -58 -150 -58
c-26 0 -44 15 -44 40zM352 272c-114 -2 -190 -67 -190 -133c0 -46 38 -93 90 -93c72 0 100 76 100 110v116zM89 570c0 55 67 107 122 107c64 0 104 -54 148 -54c38 0 50 44 68 44c9 0 17 -6 17 -20c0 -42 -58 -98 -126 -98c-64 0 -104 54 -148 54c-38 0 -42 -53 -65 -53
c-10 0 -16 7 -16 20z" />
    <glyph glyph-name="eacute" unicode="&#xe9;" horiz-adv-x="530" 
d="M24 227c0 144 89 261 284 261c85 0 194 -39 194 -138c0 -124 -188 -158 -332 -166c13 -81 78 -122 139 -122c67 0 112 33 141 60c13 13 22 21 37 21s23 -8 23 -23c0 -49 -109 -130 -231 -130c-144 0 -255 101 -255 237zM299 434c-84 0 -137 -77 -137 -190v-6
c89 9 210 37 210 125c0 41 -23 71 -73 71zM297 679c26 43 36 39 83 39c25 0 58 6 58 -27c0 -21 -17 -30 -32 -41l-120 -95c-10 -8 -28 -21 -38 -21s-19 7 -19 18s12 29 15 32z" />
    <glyph glyph-name="ecircumflex" unicode="&#xea;" horiz-adv-x="530" 
d="M24 227c0 144 89 261 284 261c85 0 194 -39 194 -138c0 -124 -188 -158 -332 -166c13 -81 78 -122 139 -122c67 0 112 33 141 60c13 13 22 21 37 21s23 -8 23 -23c0 -49 -109 -130 -231 -130c-144 0 -255 101 -255 237zM299 434c-84 0 -137 -77 -137 -190v-6
c89 9 210 37 210 125c0 41 -23 71 -73 71zM230 682c10 10 34 40 57 40c14 0 30 -11 61 -42l91 -93c15 -15 22 -24 22 -36c0 -7 -9 -17 -18 -17c-1 0 -10 -1 -41 18l-114 72l-113 -71c-33 -21 -41 -19 -42 -19c-9 0 -18 10 -18 17c0 13 9 22 21 34z" />
    <glyph glyph-name="edieresis" unicode="&#xeb;" horiz-adv-x="530" 
d="M24 227c0 144 89 261 284 261c85 0 194 -39 194 -138c0 -124 -188 -158 -332 -166c13 -81 78 -122 139 -122c67 0 112 33 141 60c13 13 22 21 37 21s23 -8 23 -23c0 -49 -109 -130 -231 -130c-144 0 -255 101 -255 237zM299 434c-84 0 -137 -77 -137 -190v-6
c89 9 210 37 210 125c0 41 -23 71 -73 71zM102 613c0 45 39 66 77 66s77 -21 77 -66s-39 -66 -77 -66s-77 21 -77 66zM311 613c0 45 39 66 77 66s77 -21 77 -66s-39 -66 -77 -66s-77 21 -77 66z" />
    <glyph glyph-name="egrave" unicode="&#xe8;" horiz-adv-x="530" 
d="M24 227c0 144 89 261 284 261c85 0 194 -39 194 -138c0 -124 -188 -158 -332 -166c13 -81 78 -122 139 -122c67 0 112 33 141 60c13 13 22 21 37 21s23 -8 23 -23c0 -49 -109 -130 -231 -130c-144 0 -255 101 -255 237zM299 434c-84 0 -137 -77 -137 -190v-6
c89 9 210 37 210 125c0 41 -23 71 -73 71zM139 691c0 33 33 27 58 27c47 0 57 4 82 -39l54 -94c3 -4 15 -22 15 -33s-8 -18 -19 -18c-9 0 -28 13 -37 20l-121 96c-15 11 -32 20 -32 41z" />
    <glyph glyph-name="iacute" unicode="&#xed;" horiz-adv-x="270" 
d="M23 426c0 16 11 19 26 24c25 8 95 38 122 38s36 -15 36 -69v-323c0 -62 47 -32 47 -70c0 -17 -12 -26 -35 -26h-154c-23 0 -35 9 -35 26c0 36 47 10 47 70v264c0 46 -54 36 -54 66zM144 679c26 43 36 39 83 39c25 0 58 6 58 -27c0 -21 -17 -30 -32 -41l-120 -95
c-10 -8 -28 -21 -38 -21s-19 7 -19 18s12 29 15 32z" />
    <glyph glyph-name="icircumflex" unicode="&#xee;" horiz-adv-x="270" 
d="M23 426c0 16 11 19 26 24c25 8 95 38 122 38s36 -15 36 -69v-323c0 -62 47 -32 47 -70c0 -17 -12 -26 -35 -26h-154c-23 0 -35 9 -35 26c0 36 47 10 47 70v264c0 46 -54 36 -54 66zM77 682c10 10 34 40 57 40c14 0 30 -11 61 -42l91 -93c15 -15 22 -24 22 -36
c0 -7 -9 -17 -18 -17c-1 0 -10 -1 -41 18l-114 72l-113 -71c-33 -21 -41 -19 -42 -19c-9 0 -18 10 -18 17c0 13 9 22 21 34z" />
    <glyph glyph-name="idieresis" unicode="&#xef;" horiz-adv-x="270" 
d="M23 426c0 16 11 19 26 24c25 8 95 38 122 38s36 -15 36 -69v-323c0 -62 47 -32 47 -70c0 -17 -12 -26 -35 -26h-154c-23 0 -35 9 -35 26c0 36 47 10 47 70v264c0 46 -54 36 -54 66zM-46 613c0 45 39 66 77 66s77 -21 77 -66s-39 -66 -77 -66s-77 21 -77 66zM163 613
c0 45 39 66 77 66s77 -21 77 -66s-39 -66 -77 -66s-77 21 -77 66z" />
    <glyph glyph-name="igrave" unicode="&#xec;" horiz-adv-x="270" 
d="M23 426c0 16 11 19 26 24c25 8 95 38 122 38s36 -15 36 -69v-323c0 -62 47 -32 47 -70c0 -17 -12 -26 -35 -26h-154c-23 0 -35 9 -35 26c0 36 47 10 47 70v264c0 46 -54 36 -54 66zM-14 691c0 33 33 27 58 27c47 0 57 4 82 -39l54 -94c3 -4 15 -22 15 -33s-8 -18 -19 -18
c-9 0 -28 13 -37 20l-121 96c-15 11 -32 20 -32 41z" />
    <glyph glyph-name="ntilde" unicode="&#xf1;" horiz-adv-x="590" 
d="M22 430c0 38 109 58 130 58c31 0 34 -22 36 -80c47 54 102 80 165 80c123 0 181 -63 181 -191v-200c0 -62 47 -32 47 -70c0 -19 -15 -27 -35 -27h-154c-20 0 -35 8 -35 27c0 36 47 10 47 70v195c0 74 -14 122 -95 122c-72 0 -104 -65 -104 -106v-211c0 -62 47 -32 47 -70
c0 -19 -15 -27 -35 -27h-154c-20 0 -35 8 -35 27c0 36 47 10 47 70v250c0 74 -53 38 -53 83zM118 570c0 55 67 107 122 107c64 0 104 -54 148 -54c38 0 50 44 68 44c9 0 17 -6 17 -20c0 -42 -58 -98 -126 -98c-64 0 -104 54 -148 54c-38 0 -42 -53 -65 -53
c-10 0 -16 7 -16 20z" />
    <glyph glyph-name="oacute" unicode="&#xf3;" horiz-adv-x="590" 
d="M24 239c0 148 121 249 271 249s271 -101 271 -249s-121 -249 -271 -249s-271 101 -271 249zM294 428c-100 0 -132 -105 -132 -189c0 -125 58 -189 133 -189s133 64 133 189c0 120 -54 189 -134 189zM304 679c26 43 36 39 83 39c25 0 58 6 58 -27c0 -21 -17 -30 -32 -41
l-120 -95c-10 -8 -28 -21 -38 -21s-19 7 -19 18s12 29 15 32z" />
    <glyph glyph-name="ocircumflex" unicode="&#xf4;" horiz-adv-x="590" 
d="M24 239c0 148 121 249 271 249s271 -101 271 -249s-121 -249 -271 -249s-271 101 -271 249zM294 428c-100 0 -132 -105 -132 -189c0 -125 58 -189 133 -189s133 64 133 189c0 120 -54 189 -134 189zM237 682c10 10 34 40 57 40c14 0 30 -11 61 -42l91 -93
c15 -15 22 -24 22 -36c0 -7 -9 -17 -18 -17c-1 0 -10 -1 -41 18l-114 72l-113 -71c-33 -21 -41 -19 -42 -19c-9 0 -18 10 -18 17c0 13 9 22 21 34z" />
    <glyph glyph-name="odieresis" unicode="&#xf6;" horiz-adv-x="590" 
d="M24 239c0 148 121 249 271 249s271 -101 271 -249s-121 -249 -271 -249s-271 101 -271 249zM294 428c-100 0 -132 -105 -132 -189c0 -125 58 -189 133 -189s133 64 133 189c0 120 -54 189 -134 189zM114 613c0 45 39 66 77 66s77 -21 77 -66s-39 -66 -77 -66
s-77 21 -77 66zM323 613c0 45 39 66 77 66s77 -21 77 -66s-39 -66 -77 -66s-77 21 -77 66z" />
    <glyph glyph-name="ograve" unicode="&#xf2;" horiz-adv-x="590" 
d="M24 239c0 148 121 249 271 249s271 -101 271 -249s-121 -249 -271 -249s-271 101 -271 249zM294 428c-100 0 -132 -105 -132 -189c0 -125 58 -189 133 -189s133 64 133 189c0 120 -54 189 -134 189zM146 691c0 33 33 27 58 27c47 0 57 4 82 -39l54 -94
c3 -4 15 -22 15 -33s-8 -18 -19 -18c-9 0 -28 13 -37 20l-121 96c-15 11 -32 20 -32 41z" />
    <glyph glyph-name="otilde" unicode="&#xf5;" horiz-adv-x="590" 
d="M24 239c0 148 121 249 271 249s271 -101 271 -249s-121 -249 -271 -249s-271 101 -271 249zM294 428c-100 0 -132 -105 -132 -189c0 -125 58 -189 133 -189s133 64 133 189c0 120 -54 189 -134 189zM118 570c0 55 67 107 122 107c64 0 104 -54 148 -54c38 0 50 44 68 44
c9 0 17 -6 17 -20c0 -42 -58 -98 -126 -98c-64 0 -104 54 -148 54c-38 0 -42 -53 -65 -53c-10 0 -16 7 -16 20z" />
    <glyph glyph-name="scaron" unicode="&#x161;" horiz-adv-x="450" 
d="M41 328c0 112 108 160 206 160c93 0 166 -34 166 -76c0 -61 -6 -65 -22 -65c-46 0 -41 81 -144 81c-62 0 -80 -37 -80 -66c0 -95 269 -31 269 -200c0 -107 -89 -172 -218 -172c-116 0 -194 75 -194 107c0 22 14 51 40 51c53 0 46 -98 150 -98c52 0 92 30 92 71
c0 109 -265 29 -265 207zM53 705c0 7 9 17 18 17c10 0 27 -9 37 -16l118 -74l116 73c8 5 28 17 39 17c9 0 18 -10 18 -17c0 -13 -9 -22 -21 -34l-94 -97c-10 -10 -34 -40 -57 -40c-14 0 -30 11 -61 42l-91 93c-15 15 -22 24 -22 36z" />
    <glyph glyph-name="uacute" unicode="&#xfa;" horiz-adv-x="570" 
d="M16 438c0 32 119 50 135 50c15 0 41 -4 41 -70v-246c0 -92 29 -108 80 -108c63 0 112 43 112 90v209c0 66 -46 38 -46 75c0 32 119 50 135 50c15 0 41 -4 41 -70v-323c0 -52 51 -40 51 -68c0 -18 -12 -27 -35 -27h-81c-48 0 -51 21 -57 63c-45 -47 -105 -73 -166 -73
c-116 0 -164 77 -164 161v212c0 66 -46 38 -46 75zM259 679c26 43 36 39 83 39c25 0 58 6 58 -27c0 -21 -17 -30 -32 -41l-120 -95c-10 -8 -28 -21 -38 -21s-19 7 -19 18s12 29 15 32z" />
    <glyph glyph-name="ucircumflex" unicode="&#xfb;" horiz-adv-x="570" 
d="M16 438c0 32 119 50 135 50c15 0 41 -4 41 -70v-246c0 -92 29 -108 80 -108c63 0 112 43 112 90v209c0 66 -46 38 -46 75c0 32 119 50 135 50c15 0 41 -4 41 -70v-323c0 -52 51 -40 51 -68c0 -18 -12 -27 -35 -27h-81c-48 0 -51 21 -57 63c-45 -47 -105 -73 -166 -73
c-116 0 -164 77 -164 161v212c0 66 -46 38 -46 75zM197 682c10 10 34 40 57 40c14 0 30 -11 61 -42l91 -93c15 -15 22 -24 22 -36c0 -7 -9 -17 -18 -17c-1 0 -10 -1 -41 18l-114 72l-113 -71c-33 -21 -41 -19 -42 -19c-9 0 -18 10 -18 17c0 13 9 22 21 34z" />
    <glyph glyph-name="udieresis" unicode="&#xfc;" horiz-adv-x="570" 
d="M16 438c0 32 119 50 135 50c15 0 41 -4 41 -70v-246c0 -92 29 -108 80 -108c63 0 112 43 112 90v209c0 66 -46 38 -46 75c0 32 119 50 135 50c15 0 41 -4 41 -70v-323c0 -52 51 -40 51 -68c0 -18 -12 -27 -35 -27h-81c-48 0 -51 21 -57 63c-45 -47 -105 -73 -166 -73
c-116 0 -164 77 -164 161v212c0 66 -46 38 -46 75zM69 613c0 45 39 66 77 66s77 -21 77 -66s-39 -66 -77 -66s-77 21 -77 66zM278 613c0 45 39 66 77 66s77 -21 77 -66s-39 -66 -77 -66s-77 21 -77 66z" />
    <glyph glyph-name="ugrave" unicode="&#xf9;" horiz-adv-x="570" 
d="M16 438c0 32 119 50 135 50c15 0 41 -4 41 -70v-246c0 -92 29 -108 80 -108c63 0 112 43 112 90v209c0 66 -46 38 -46 75c0 32 119 50 135 50c15 0 41 -4 41 -70v-323c0 -52 51 -40 51 -68c0 -18 -12 -27 -35 -27h-81c-48 0 -51 21 -57 63c-45 -47 -105 -73 -166 -73
c-116 0 -164 77 -164 161v212c0 66 -46 38 -46 75zM101 691c0 33 33 27 58 27c47 0 57 4 82 -39l54 -94c3 -4 15 -22 15 -33s-8 -18 -19 -18c-9 0 -28 13 -37 20l-121 96c-15 11 -32 20 -32 41z" />
    <glyph glyph-name="yacute" unicode="&#xfd;" horiz-adv-x="510" 
d="M27 478h151c18 0 29 -9 29 -26c0 -27 -35 -15 -35 -74c0 -86 45 -298 120 -298c64 0 98 239 98 299c0 50 -56 46 -56 79c0 13 7 20 20 20h134c11 0 26 -5 26 -21c0 -27 -44 -30 -50 -93c-12 -129 -113 -560 -347 -560c-33 0 -89 15 -89 52c0 32 23 48 60 48
c28 0 53 -16 73 -16c37 0 106 66 133 133c-26 -9 -34 -9 -39 -9c-178 0 -207 272 -225 391c-5 34 -32 25 -32 50c0 17 10 25 29 25zM264 679c26 43 36 39 83 39c25 0 58 6 58 -27c0 -21 -17 -30 -32 -41l-120 -95c-10 -8 -28 -21 -38 -21s-19 7 -19 18s12 29 15 32z" />
    <glyph glyph-name="ydieresis" unicode="&#xff;" horiz-adv-x="510" 
d="M27 478h151c18 0 29 -9 29 -26c0 -27 -35 -15 -35 -74c0 -86 45 -298 120 -298c64 0 98 239 98 299c0 50 -56 46 -56 79c0 13 7 20 20 20h134c11 0 26 -5 26 -21c0 -27 -44 -30 -50 -93c-12 -129 -113 -560 -347 -560c-33 0 -89 15 -89 52c0 32 23 48 60 48
c28 0 53 -16 73 -16c37 0 106 66 133 133c-26 -9 -34 -9 -39 -9c-178 0 -207 272 -225 391c-5 34 -32 25 -32 50c0 17 10 25 29 25zM74 613c0 45 39 66 77 66s77 -21 77 -66s-39 -66 -77 -66s-77 21 -77 66zM283 613c0 45 39 66 77 66s77 -21 77 -66s-39 -66 -77 -66
s-77 21 -77 66z" />
    <glyph glyph-name="zcaron" unicode="&#x17e;" horiz-adv-x="460" 
d="M94 478h292c37 0 58 -15 58 -46c0 -23 -19 -48 -44 -80l-223 -292h116c93 0 97 84 131 84c10 0 20 -7 20 -27c0 -70 -30 -117 -68 -117h-295c-56 0 -62 22 -62 39c0 20 21 51 44 80l243 299h-114c-112 -3 -96 -67 -134 -67c-17 0 -18 29 -18 39c0 48 23 88 54 88zM58 705
c0 7 9 17 18 17c10 0 27 -9 37 -16l118 -74l116 73c8 5 28 17 39 17c9 0 18 -10 18 -17c0 -13 -9 -22 -21 -34l-94 -97c-10 -10 -34 -40 -57 -40c-14 0 -30 11 -61 42l-91 93c-15 15 -22 24 -22 36z" />
    </font>
</defs>
</svg>
